<?xml version="1.0" encoding="UTF-8"?><svg xmlns="http://www.w3.org/2000/svg" viewBox="0 0 134.76 119.08"><defs><style>.d{fill:#f6a3ae;fill-rule:evenodd;}</style></defs><g id="a"/><g id="b"><g id="c"><path class="d" d="M36.77,87.18c24.44,4.8,53.79,2.63,68.33-21.91,1.28-2.16,2-3.8,3.48-5.9-.25,2.88-.72,4.19-1.83,6.83-11.71,27.99-46.08,31.85-71.14,28.01-1.83-.34-3.06-2.18-2.74-4.13,.32-1.94,2.06-3.24,3.89-2.9h0Z"/><path class="d" d="M99.63,73c2.97,10,16.2,8.52,23.86,5.53-9.19,2.96-18.91,3.36-21.05-5.69-.07-.5-.76-.86-1.54-.82-.78,.05-1.35,.48-1.27,.98h0Z"/><path class="d" d="M91.17,80.23c2.23,13.26,18.82,14.61,27.83,13.74-7.76,.83-26.56-2.77-24.37-12.77,.11-.49-.58-1.11-1.54-1.37-.96-.27-1.82-.09-1.92,.41h0Z"/><path class="d" d="M78.78,87.12c.82,12.65,22.86,20.31,31.84,18.85-8.66,.77-28.69-7.65-27.48-17.22,.14-.49-.72-1.25-1.92-1.7-1.2-.45-2.29-.42-2.43,.07h0Z"/><path class="d" d="M95.83,77.44c1.39,5.82,6.2,9.82,16.08,10.04,3.43,.07,6.89-.51,9.99-1.55,0,0-20.34,6.78-23.27-8.51-.08-.5-.77-.9-1.54-.9-.77,0-1.34,.42-1.26,.92h0Z"/><path class="d" d="M85.94,84.59c4.04,12.13,17.96,15.75,29.48,15.9-2.42-.59-21.1,.02-26.12-15.22-.14-.56-1.01-1.18-1.94-1.36-.93-.19-1.57,.12-1.42,.68h0Z"/><path class="d" d="M71.73,89.34c2.06,7.18,7.13,17.29,24.21,22.22,2.21,.64,4.47,1.12,6.73,1.47-1.32-.22-22.15-3.15-26.76-22.2-.13-.61-1.18-1.44-2.33-1.85-1.16-.41-1.98-.25-1.85,.36h0Z"/><path class="d" d="M65.32,90.18c1.3,14.6,10.17,21.21,18.9,25.76-7.52-3.83-17.33-16.74-14.59-25.42,.13-.43-.22,1.7-1.12,.86-.9-.84-3.05-1.63-3.19-1.2h0Z"/><path class="d" d="M58.71,90.94c-.16,12.82,6.45,22.28,12.45,27.51-1.16-1.61-13.78-14.69-8.71-28.16,.03-.58-2.42,1.25-2.87,.66-.45-.58-.84-.59-.87,0h0Z"/><path class="d" d="M51.22,93.1c-.77,13.91,5.53,23.32,9.27,25.98-3.34-2.31-10.01-14.08-6.02-27.3-.02-.52-3.29,.47-3.25,1.32h0Z"/><path class="d" d="M44.14,94.78c-.36,11.67,2.41,17.81,4.29,21.8-.45-.84-5.08-10.65-2.78-22.9-.01-.44-1.52,.39-1.5,1.11h0Z"/><path class="d" d="M38.91,91.29c-2.6,11.38-1.43,19.28,0,22.22-1.28-5.01-2.27-12.48,1.69-23.01,.07-.43-1.57,.09-1.69,.79h0Z"/><path class="d" d="M103.89,70.45c1.92,2.59,4.42,3.91,7.15,4.17,3.72,.35,7.87-1.26,11.53-4.31-3.33,2.91-9.46,5.27-13.75,3.42-1.81-.78-3.47-2.33-3.65-5.35-.23-.16-1.65,1.82-1.28,2.08h0Z"/><path class="d" d="M9.98,49.05c16.14-6.6,33.95-19.86,50.26-28.42C83.43,8.46,108.14,.23,127.19,24.41c2.92,3.71,4.19,6.17,7.56,9.81-.5-5.28-1.41-7.48-3.92-12.17C112.75-11.77,75.15,.05,48.01,13.26c-13.22,6.43-29.99,17.01-42.93,21.54-3.93,1.35-6.02,5.64-4.67,9.57,1.35,3.93,5.64,6.02,9.57,4.67h0Z"/></g></g></svg>