<?xml version="1.0" encoding="UTF-8"?><svg xmlns="http://www.w3.org/2000/svg" viewBox="0 0 67.55 108.47"><defs><style>.d{fill:#f6a3ae;}</style></defs><g id="a"/><g id="b"><g id="c"><path class="d" d="M40.44,68.15c.59,1.19,2.04,1.67,3.22,1.07,1.19-.59,1.67-2.04,1.07-3.22l-6.4-12.8c-.59-1.19-2.04-1.67-3.22-1.07-1.19,.59-1.67,2.04-1.07,3.22l6.4,12.8h0Z"/><path class="d" d="M22.64,66.51c-.59,1.19-.11,2.63,1.07,3.22,1.19,.59,2.63,.11,3.22-1.07l6.57-13.32c.59-1.19,.11-2.63-1.07-3.22-1.19-.59-2.63-.11-3.22,1.07l-6.57,13.32h0Z"/><path class="d" d="M49.45,63.24c5.21,0,9.91,2.1,13.25,6.08,3,3.58,4.85,8.66,4.85,15.03s-1.93,12.43-5.05,16.76c-3.29,4.55-7.89,7.37-13.04,7.37-5.59,0-8.68-3.06-10.35-8-1.44-4.26-1.71-9.91-1.71-16.13s.28-11.21,1.77-14.77c1.74-4.15,4.82-6.34,10.3-6.34h0Zm9.55,9.17c-2.38-2.84-5.78-4.34-9.55-4.34-3.18,0-4.93,1.16-5.85,3.36-1.17,2.8-1.39,7.21-1.39,12.92s.23,10.98,1.45,14.58c.99,2.92,2.72,4.72,5.79,4.72,3.52,0,6.75-2.04,9.14-5.35,2.55-3.53,4.13-8.46,4.13-13.95,0-5.17-1.41-9.19-3.72-11.94h0Z"/><path class="d" d="M18.09,68.07c-3.78,0-7.17,1.5-9.55,4.34-2.3,2.75-3.72,6.77-3.72,11.94,0,5.49,1.58,10.41,4.13,13.95,2.39,3.31,5.62,5.35,9.14,5.35,3.07,0,4.8-1.8,5.79-4.72,1.22-3.6,1.45-8.8,1.45-14.58s-.22-10.13-1.39-12.92c-.92-2.2-2.67-3.36-5.85-3.36h0Zm-13.25,1.25c3.33-3.98,8.04-6.08,13.25-6.08,5.48,0,8.56,2.19,10.3,6.34,1.49,3.55,1.77,8.49,1.77,14.77s-.27,11.87-1.71,16.13c-1.67,4.94-4.76,8-10.35,8-5.15,0-9.75-2.82-13.04-7.37-3.12-4.32-5.05-10.25-5.05-16.76s1.84-11.45,4.85-15.03h0Z"/><path class="d" d="M57.12,24.67c.97-.91,1.03-2.43,.12-3.4-.91-.97-2.43-1.03-3.4-.12l-19.3,17.96c-.97,.91-1.03,2.43-.12,3.4,.91,.97,2.43,1.03,3.4,.12l19.3-17.96h0Z"/><path class="d" d="M13.7,21.14c-.97-.91-2.5-.85-3.4,.12-.91,.97-.85,2.5,.12,3.4l19.3,17.96c.97,.91,2.5,.85,3.4-.12,.91-.97,.85-2.5-.12-3.4L13.7,21.14h0Z"/><path class="d" d="M33.77,38.59c2.33,0,4.44,.95,5.97,2.47,1.53,1.53,2.47,3.64,2.47,5.97s-.95,4.44-2.47,5.97c-1.53,1.53-3.64,2.47-5.97,2.47s-4.44-.95-5.97-2.47c-1.53-1.53-2.47-3.64-2.47-5.97s.95-4.44,2.47-5.97c1.53-1.53,3.64-2.47,5.97-2.47h0Z"/><path class="d" d="M9.65,2.41c0-1.33-1.08-2.41-2.41-2.41s-2.41,1.08-2.41,2.41V26.49c0,.3,.04,.6,.16,.9,.47,1.25,1.87,1.87,3.11,1.4h0c17-6.45,34.17-6.59,51.17-.08,.32,.15,.67,.24,1.05,.24,1.33,0,2.41-1.08,2.41-2.41V8.8s0-.03,0-.04V2.41c0-1.33-1.08-2.41-2.41-2.41s-2.41,1.08-2.41,2.41v2.65c-16.02-6.6-32.25-6.8-48.25-.05V2.41h0Z"/><path class="d" d="M57.89,5.06c-16.01-6.6-32.23-6.79-48.22-.05V23.27c16.94-6.76,32.94-6.22,48.22,0V5.06h0Z"/></g></g></svg>