<?xml version="1.0" encoding="UTF-8"?><svg xmlns="http://www.w3.org/2000/svg" viewBox="0 0 130.07 123.85"><defs><style>.d{fill:#f6a3ae;}.e{fill:#3c4652;}</style></defs><g id="a"/><g id="b"><g id="c"><polygon class="e" points="84.71 47.25 84.69 47.27 84.66 47.31 84.71 47.37 84.71 47.25 84.71 47.25"/><path class="d" d="M16.63,64.84c1-2.51,.56-5.42-1.16-7.58-4.22-5.3-6.45-11.7-6.45-18.5,0-8.21,3.27-15.85,9.21-21.52,5.96-5.68,13.76-8.58,21.97-8.19,15.17,.71,27.6,13.15,28.29,28.32,.37,8.22-2.54,16.02-8.21,21.95-5.67,5.93-13.31,9.2-21.51,9.2-2,0-3.99-.2-5.91-.59-1.86-.37-3.77-.15-5.52,.66-3.5,1.61-8.39,2.4-13.91,2.29,1.3-1.96,2.38-3.98,3.2-6.05h0Zm60.88-27.87C76.61,17.19,60.41,.97,40.63,.05,29.92-.46,19.75,3.33,12.01,10.72,4.26,18.11,0,28.07,0,38.77c0,8.59,2.74,16.7,7.93,23.49-.83,1.85-2.61,5.1-5.93,8.31-1.38,1.32-1.88,3.27-1.32,5.09,.56,1.81,2.06,3.13,3.93,3.44,1.8,.3,5.48,.81,9.95,.81,6.47,0,12.04-1.05,16.52-3.13,2.51,.51,5.1,.77,7.7,.77,10.69,0,20.65-4.26,28.04-11.99,7.38-7.73,11.18-17.88,10.7-28.59h0Z"/><path class="d" d="M118.23,36.09h-36.91c.01,.24,.04,.47,.05,.7,.13,2.82-.02,5.6-.42,8.31h37.28c1.56,0,2.82,1.26,2.82,2.82v43.61c0,1.56-1.26,2.82-2.82,2.82h-9.61c-1.43,0-2.59,1.16-2.59,2.59v9.31l-13.15-11.27c-.47-.4-1.07-.62-1.68-.62H55.36c-1.56,0-2.82-1.26-2.82-2.82v-12.4c-2.9,.99-5.92,1.66-9.02,2v10.4c0,6.54,5.3,11.84,11.84,11.84h33.46l23.38,20.04c1.12,.96,2.85,.16,2.85-1.31v-18.73h3.18c6.54,0,11.84-5.3,11.84-11.84V47.93c0-6.54-5.3-11.84-11.84-11.84h0Z"/><path class="d" d="M43.52,47.93v16.28c3.22-.59,6.26-1.79,9.02-3.53v-12.74c0-1.56,1.27-2.82,2.82-2.82h8.51c.61-2.43,.88-4.97,.76-7.56-.02-.49-.09-.98-.14-1.46h-9.14c-6.53,0-11.84,5.31-11.84,11.84h0Z"/><path class="d" d="M91.95,52.22c-2.02,0-4.15,.45-5.85,1.23-1.01,.46-1.5,1.64-1.1,2.68,.2,.53,.6,.95,1.12,1.17,.54,.23,1.13,.24,1.69,.02,1.02-.41,2.18-.64,3.25-.64,2.72,.04,4.22,1.38,4.22,3.77,0,2.1-1.22,3.95-3.33,6.44-2.42,2.9-3.48,5.88-3.15,8.83l.13,1.7h4.73l-.07-1.76c-.14-2.44,.66-4.5,2.7-6.9,2.54-3.01,4.33-5.41,4.33-8.85s-2.27-7.68-8.67-7.68h0Z"/><path class="d" d="M91.22,80.29c-.98,0-1.86,.37-2.48,1.04-.67,.72-1,1.74-.91,2.86,.13,1.8,1.57,3.16,3.35,3.16h0c2,0,3.4-1.44,3.4-3.51s-1.38-3.55-3.36-3.55h0Z"/></g></g></svg>