<?xml version="1.0" encoding="UTF-8"?><svg xmlns="http://www.w3.org/2000/svg" viewBox="0 0 173.63 173.63"><defs><style>.d{fill:#facdd3;}.e{fill:#27272a;}</style></defs><g id="a"/><g id="b"><g id="c"><g><rect class="e" width="173.63" height="173.63"/><path class="d" d="M153.02,134.96v2.57c-16.02-.76-28.42-.91-44.59,0v-2.57c10.28-1.51,11.19-3.17,11.64-12.24,.3-4.69,0-24.34-.15-36.43-.15-9.37-.45-26.45-.76-34.77l-35.67,86.01h-2.57c-11.34-26.6-22.82-53.21-34.61-79.05-1.21-2.72-2.27-4.84-3.48-6.8-.15,19.95-.3,48.07-.3,58.35,.15,16.02,2.27,19.5,15.72,25.09v2.42c-13.15-.76-24.64-.76-37.64,0v-2.42c13.45-6.2,14.96-9.67,15.72-24.94,.76-11.49,1.81-44.14,2.57-63.94-3.93-4.08-8.46-5.44-16.32-7.56v-2.57c13.3,1.06,27.21,.91,39.3,.6,.6,5.44,2.12,9.98,4.99,16.93,4.08,9.98,11.64,28.57,23.73,55.78l19.5-48.07c4.54-10.88,6.8-17.08,7.71-24.64,12.55,.3,23.58-.15,33.56-.6v2.57l-3.17,.6c-6.65,1.66-7.71,3.02-8.01,11.64-.15,4.53,.15,24.03,.3,34.92,.15,10.88,.6,32.2,1.06,37.18,.91,9.22,1.97,10.13,9.07,11.49l2.42,.45Z"/></g></g></g></svg>