<?xml version="1.0" encoding="UTF-8"?><svg xmlns="http://www.w3.org/2000/svg" viewBox="0 0 173.63 173.63"><defs><style>.d{fill:#facdd3;}.e{fill:#27272a;}</style></defs><g id="a"/><g id="b"><g id="c"><g><rect class="e" width="173.63" height="173.63"/><path class="d" d="M62.28,107.11c.1,.29,.1,1.66-.1,1.86-.88-.29-.29-3.22-.98-3.81,.2-.49,.1-1.46,.39-1.56,.29,0,.1,.59,.39,.59,.2,0,.2-.98,.39-1.37,.29-.2-.1,.98,.2,1.46-.29,.2-.2,.49-.49,.49-.2,.88,.88,1.86,.2,2.34Zm33.11,37.6c-.78,2.54-3.12,3.91-4.3,5.76-.2,.29-.2-.49-.59-.49s.1,.68-.39,.59c.39,.59,.29,1.27-.2,1.27-.2,0,0-.59,0-.78-.98,.2-.59,1.07-1.56,1.27-.2,.59,.49,.1,.59,.39,.1,.49-.98,.59-.98,.78,.39,.98-1.17,1.27-2.05,.78-.1-.29,.29-.2,.29-.49,.2,.2,.49,0,.59-.29,.1-.1,.2,.49,.39,.49,.49-.2,.2-1.27,.59-1.37-.59-.78-.88,.59-1.07,.39-.49-.49-1.17,.49-1.17,1.07-1.76,.39-5.18,.88-6.74-.39-.1-.49,.78-.2,.78-.39,0-.39-.59-.39-1.07-.29,.2-.49,.1-.88-.2-.88s-.29,.78-.29,1.37c-.78-.2-.98-.78-1.17-1.46-.1-.39-.39,.1-.68,.1-.68,0-1.07-1.95-2.15-2.34-1.95-1.66-4.79-7.13-6.25-11.23-.59-1.56,.98-.68,.98-1.27s-.49-.39-.68-1.07c-.88-3.12-1.27-6.54-1.86-11.23-.1,.39-.59,.29-.68,.59,.49,1.46,.88,4.49,.39,4.49-.59,0-.49-3.32-1.27-3.61,.2-.78-.49-1.46-.59-2.25-.2,0-.29,.1-.39,.29-.2,0,0-.49-.1-.59,1.07-.1-.49-2.93,.68-3.61,.29,0,.29,3.32,1.07,3.52,.68,0-.1-.49-.1-.59-.1-.2,.59,0,.29-.29-.29,0-.68-1.07-.29-1.27,.29,.1,0,.49,.2,.78,.2-.29,.2-.59,.59-.49-.1,.29,.1,1.37,.39,1.37,.68-.2-.68-2.44-.49-2.83-.29-.29-.49,.68-.78,.78,.1-.59-.49-.98-.2-1.17,.49-.88-.49-.59-.2-1.17-.29-.1-.29,.29-.39,.39-.2-.29,0-1.37,.2-1.56s-.29-2.64-.1-4.3c-.2,0-.2,.1-.29,.2-.29,0,.1-1.07,.1-1.17-.1-1.07-.29-1.66-.29-3.32-.68,.1-.29,1.86-.68,1.66-.29-.1-.1-1.46-.2-1.76,0-.39,.59-.2,.59-.1,.29-.39-.1-.59,.2-.98-.29,.39-1.07,.2-1.07,0,0-.39,.49-.59,.59-.88-.2-.2-.39,.2-.59,.2-.29-.29,0-3.61,.1-5.57,0-.29-.59,.39-.59,.1,0-.59,.98-1.37,.49-2.15-.29,0-.2,.39-.29,.59-.39-.39,0-.88,.29-.98,.2-.39-.68-.39-.1-.78-.1-.29-.68-.1-.78-.59,0-.59,.2,.1,.49-.2-.29-.59-.2-1.86,.1-1.86,.39,0,0,.88,.49,.98,.29-.1-.2-.78,.1-1.46,.1-.2-.68-.1-.49-.49,.29,0,.59-.49,.39-.59-.39-.39,.2-.1,.1-.78-.1-.29-.29,0-.39-.39,0-.2,.39,0,.39-.2-.1-.59,.29-.68,.2-1.07s-.2,.29-.39,.2c-.59-.39,.59-1.37-.1-1.37-.39,0,.39-1.07,.29-1.76,0-.2-.29,.39-.39,.2,.2-.59,0-1.76,.39-2.05-.2-.1-.29-2.34,.49-2.05,.59,.1-.2-3.22,.29-5.86-.2-.2-.49,.59-.68,.59-.29-.39,.39-2.34,.29-3.03,.68,0,.29,1.07,.78,.98,.29-.1-.2-.78,0-.88-.59-.29,.2-.29-.49-.68-.29-.29,1.17-2.54,1.27-4.39,0-.29-.49,.39-.88,.1-.29-.39,1.27-2.34,.68-2.73-.39-.1-.49,1.66-.78,1.76-.59,.1,0-.78-.49-.78-.29-.1,.39-1.46,.98-1.76-.29-.29,0-.59-.39-.68-.2-.59,.88-1.17,.2-1.76-.2-.29,.78-.98,.29-1.07,0-.39,1.07-.49,1.07-.1-.39,.39-.29,1.17-.1,1.27,.39,0,.49-2.25,1.07-2.15,.39,0-.29-.88,0-1.07-.88-.59-.59,1.86-1.76,1.37-.1-.29,.39-.39,.59-.88,0-.2-.39,0-.29-.29,.2-.98,.98-1.27,.98-2.25,0-.1,.1-.59-.1-.59s0,.78-.49,.59c.1-.1,0-1.37,.39-1.27-.2-.78-.29-1.66,.2-1.86,.68-.2,1.37-.49,.78-1.17-.1-.2,.88-.68,.2-.68,0-.49,.78-.49,.68-.68-.29-.49,.49-.59,.2-1.17-.29,.29-1.17,1.17-1.46,1.07-.29-.29,.68-2.73,.98-2.54,.2,.1-.49,1.46-.29,1.56s.39-.39,.88-.39c-.29-.2-.29-.59-.1-.88,.59,.39,.39-.39,.98,0-.1-.39,.2-.39,.1-.68-.49,.49,0-.78,0-.88-.2-.1-.39,.39-.59,.59-.39-.2,.2-1.07,.49-2.05-.1-.2-.2,.2-.49,0,0-.29,.78-.98,.49-1.17-.1-.2-.1,.59-.29,.49-.29,0-.2,.39-.39,.49-.68-.2,.39-1.46,.49-1.86,.49,.29,.59-.59,.88-.1,.49-.49-.98-.49-.39-1.27,.29,.29,.78,.29,.78,.1,0-.49-.78-.29-.39-1.07,.1-.2,.1,.39,.49,.2,.1,0,.59-.68,.59-.88-.2-.29-.59,.39-.88,.29-.2-.2,.2-.68,.59-1.07-.39-.49,.1-1.17-.1-1.76l.49-.68c-.29-.59,.78-.78,.68-1.27,0-2.15,1.95-4.2,1.86-7.13,.2-1.86,1.95-1.95,1.95-3.81l.59-.29c.1-.2-.49-.1-.49-.29,0-.49,.78-.49,1.07-1.17,0-.2-.29,.1-.29-.2,.2-.68,.68-2.05,1.86-2.05-.1-.1-.1-.29-.1-.49,.2,0,.2,.2,.39,.2,.88-2.25,3.71-4.49,6.05-5.27,.1-.1-.49-.1-.29-.2,.98-.59,2.34-.1,3.22-.2,.59-.39,7.13,1.56,8.98,5.27-.68,.29,.29,.29,.59,.49,.29,.29,.98,1.46,1.46,2.34,.29,.39-.1,.98,.2,1.56,.2,.1,.1-.39,.2-.39,.78,.59-.2,1.66,.78,1.66,.2,0,.2,.98,.59,1.46-.49,.39,.68,1.37,0,1.66-.2,.1,.1,.49,.49,.39,.1,.39-.49,.39-.59,.59,0,.29,.39,.1,.68,.1,.2,.1-.39,.98,.39,.68-.29,.68,.2,.39,.2,.78-.49,1.07,.2,1.56-.2,2.54,0,.1,.2,.1,.2,.1-.29,.49,.1,.59-.39,.98-.1,.2,.2,.49,.49,.78-.39,.2,.29,1.27-.39,1.27,.78,.39-.68,1.37,.29,1.56,.2,.49-.68,.59-.59,.88,0,.1,.59,0,.59,.59-.1,.2-.88-.29-.88-.1,.1,.29,.39,.59,.78,.59-.39,.78,.59,1.86-.2,2.64,0,.1,.29,0,.39,0-.29,.39,0,1.76-.88,1.95,0,.29,.29,.39,.49,.39,0,.2-.49,.78-.78,.68,.1,.2,.2,.39,.29,.29,.1,.2-.1,.2,0,.59,.29,.1,.1-.39,.39-.29,0,.29-.2,.68-.39,.68,.29,.39-.29-.1-.39,.29,.2,.1,.49,.98-.1,.98,.39,.39,.1,.2-.1,.59,0,.1,.2,.1,.2,.2,.29,0,.2-.39,.68-.29-.1,.88-.78,1.66-.68,2.25,0,.39-.29,0-.49,0,0,.29,0,.59,.49,.88,.2,.29-.1,.78-.1,1.46,0,.39-.29,.1-.59,.1,.29,.68-.1,.68,.39,1.17,0,.29-.39,.2-.59,.2,0,1.27,0,2.83-.88,3.71,.2,.88-.39,1.17-.68,1.76,.39,.59-1.17,1.56-.49,2.25-1.27,2.25-2.64,7.23-4.39,8.3-.2,.2,.1,.39,.1,.68-1.95,3.32-7.62,12.5-9.86,15.92-.49,7.52-.49,15.14,.59,28.52-.88,.39,.68,2.73,.39,3.42-1.46,1.76,.78,3.61,.49,5.66,.68,.39,.88,1.37,1.17,2.25,.1,.39-.59,.29-.39,.68,.88,1.56,1.86,3.22,1.95,5.27,.59,.98,1.07,3.42,2.44,3.42,1.07-.1,1.76-2.34,2.83-1.66,.2-.1,.29-.2,.2-.49,.2,0,.39,.1,.39,.39,.68-.1,.39-.78,.88-.88-.1-.98,.88-.68,.88-1.56l.2,.2c.49-.29,.1-.88,.2-1.17,.39-.2,.1,.29,.39,.29,.59-.29,.2-.98,.59-1.37,.2-.2,.29,.1,.39,.39,.29,0,1.76-1.86,1.66-2.93,.68,.1,.98-1.37,1.86-1.46,0-.39-.39-.49-.29-.98,.49-1.17,5.27-2.64-4.49,14.36ZM62.67,79.28c.29,0,.29,2.34-.1,2.25,.39,.59-.1,.78,.2,1.46,.29,0,.29-.2,.29-.49,.39-.1,0,.49,.29,.49-.49,.29-.2,.59-.1,1.17h-.49v.49c.49-.2,0,.2-.39,.49,.1-1.07-.29-4.79,.29-5.86Zm.78,38.48c-.39-.1-.88-3.32-.59-3.42s.29,.29,.49,.2c.39-.29-.1-.68-.1-1.07-.39,0-.59-.1-.68-.29-.1-.29,.49,0,.29-.39-.39,.29-.1-.59-.29-.78,.49-.49,.39,.49,.68,.59,.2-.1-.1-.68,.2-.68,.39,.78,.39,2.83-.1,3.91,.1,.39,.29-.2,.59,0-.2,.49,0,1.95-.49,1.95Zm2.34-20.8c.49-.29,.2-.88,.68-1.27-.49-.29-.1-1.56-.49-1.66-.1,.59,0,1.27-.68,1.76,.39,.59-.49,1.86,.2,2.64-.1,.2-.39,.98-.2,1.27,0-.2,.29-.68,.29-.68,.2,.1,.39,.29,.2,.49-.2,.29-.2,1.66,.39,1.86,.29-.78,.39-2.05-.1-3.03-.39-.2,0,.39-.39,.2-.1-.68,.78-1.07,.1-1.56Zm3.22,8.3c.49-.88,1.37-2.44,.39-3.12,.2-.2,.39-.29,.29-.68-.29-.1-.59-1.17-.88-1.07,.49,1.37-.1,3.03,.2,4.88Zm.39-35.64c.2-.29,.49-.39,.88-.39,.49-1.37,2.25-4.1,.78-4.79,.29-1.07,1.76-2.54,.78-3.32,0-.29,.59-.2,.39-.39-.59-.88,.88-2.05,.78-2.73-.49,.2-1.46,.88-1.17,2.15-.88,.2,0,1.17-.88,1.27-.39,0,.39,1.76-.68,1.86,.1-.39,.29-.98,0-1.27-.68,.1-.39,.98-.59,1.46,0,.2,.39,0,.49,.29,0,.29-.49,.29-.78,.49-.2,.59,.49,.88,.98,.98-.1,.49-.98-.1-.98,.29,.2,1.17-.39,2.54,0,4.1Zm1.76,49.12c.2-.29,1.07-1.46,.78-1.66-.29,.2-.2-1.07-.49-.88-.49,.29,.1,1.56-.59,1.76-.2-1.66,.29-5.37-.2-5.37-.78,0-.2-1.66,0-2.34,0-.29-.49-.2-.49-.59,.2,0,.29-.2,.49-.2-.2-.49,0-1.37-.59-1.56-.49,.2-.98,4.49-.49,5.47,.78,4.3-.1,11.62,1.66,13.67,.2,2.54,1.46,6.25,1.46,9.08,.88,0,.78,1.46,1.27,1.46,1.17-.1-1.46-12.4-2.83-18.85Zm3.12-65.62c-.1-.39,.1-1.95-.39-2.05-.2,.59-1.17,.49-1.17,1.37,0,.2,.49,.39,.29,.59-1.56,.88,.29,3.61-1.07,4.59,.1,0,.1,.1,.1,.29,.88,.1,.39-.88,.98-.88,.1-1.56,.39-2.93,1.27-3.91Zm6.25,77.93c-.78,1.66,2.25,4.79,2.83,4.39,.29-.29-.39-.68-.39-1.27-1.56-.39-1.37-3.03-2.25-4,.68-.68-.1-1.66,.29-2.44l-.29-.2c.1-.39-.2-1.07-.39-1.95-.1-.29-.78,.39-.78-.2,.29,0,.1-.29,.2-.39-.2-.2-.39-.1-.49-.39,.29,0,.2-.29,.29-.39-.2-.1-.29-1.27-.59-1.07-.2,.1,0,.88-.29,.98,.49,.68-.2,1.17,.68,1.76,.2,.2-.49,0-.39,.39,.29,1.17,1.27,2.93,1.07,4-.2,.39,.59,.39,.49,.78Zm3.61,9.77c0-.39-.49-1.27-.29-1.76-.59-.29-.1-1.37-.39-1.56-.39-.1-.39,.78-.78,.59-.2-.2-.29-1.66-.59-1.76,0,.29-.29,.1-.29,.29-.1,.49,.29,1.27,0,1.56,.2,.39,.59,0,.59,.39-.59,.59,.68,.98,.59,1.76,.2,.29,.2-.49,.39-.39s.2,.29,.1,.49c.2,.2,.49,.59,.68,.39Zm.29-65.14c-1.07,3.32-.78,4.88-1.37,8.69,.2,0,.2,.39,.29,.2,1.27-2.25,2.34-3.22,3.81-5.66-.1,.1-.29,.1-.29,0,.68-.78,.98-1.37,1.76-1.66-.29-1.56,1.17-2.93,1.86-3.91,.1-.39-.29-.2-.2-.59,.2-.2,.59-.2,.78-.29,.2-.29-.29-.88,.2-.98h.39c0-.39,.39-.39,.49-.88-.49,0-.49,.78-.88,.39,1.95-3.81,2.44-5.76,4-9.96-.49-.78,1.07-2.05,.59-2.64,.68-.59,.39-.88,.68-1.46-.39-.1-.59,0-.68-.39,.2-.1,.49-.2,.49-.49-.39-.88,.49-1.07,.78-2.15,0-.29-.59,0-.59-.2,0-.68,1.46-3.22,1.17-3.22-.39,0-.39,.59-.39,.88-.1-.2-.49,.2-.59-.1-.1-.59,.49-1.76,.88-2.73,0-.29-.29,.29-.39-.1-.2-.68,.29-1.37,.49-1.66,.1-.39-.39-.2-.39-.49-.2-1.86,.49-4.79,.29-6.93,0-.29-.39,.39-.39,0-.1-2.34-.68-6.35-.98-6.35-.39,.2,.59,1.17-.39,1.46,.1-.88-1.17-2.73-.29-3.22-.88-2.64-2.05-5.18-3.52-4.98-.88,.1-5.08,13.48-5.27,21.58,.39,0,.1,1.07,.59,1.07-.2-3.22,3.22-18.36,4.2-18.46,.2,0,.2,4-.1,4.79-.78,.2-.29,2.34-.88,2.73-.78,.59-2.73,12.01-2.93,15.14,.49,.68-.39,3.91-.98,3.71-.1-.98,.59-3.03,.1-3.03-.49,.1,0-1.95-.59-1.66-2.05,3.91,2.05,7.81,.1,8.98-1.17,5.08-.78,10.45-1.66,13.18-.1,.2-.39-.49-.49,0-.1,.68,.39,.98,.29,1.37Zm2.64-44.04c.68,.2,1.17-4.3,2.15-5.27,.59-.1,1.37-.78,1.46-.1-.1,.29-.49,.1-.49,.39,.2,.29-.2,.88,0,.98,.29,0,.59-.68,.68-.88,.1-.49,.78-1.07,.59-1.27-.39-.29-.88-.98-1.07-.78-.2,.29-.59,.78-.78,.59,.1-.29,.39-.68,.2-.68-.49-.29-.98,.2-1.56,.2,.29,.68-.59,.88-.39,1.76-.29,.1-.68,.1-.68,.39,.1,.39,.68,.1,.68,.39-.29,.39-.88,3.91-.78,4.3Zm14.36,16.02v0Z"/></g></g></g></svg>