<?xml version="1.0" encoding="UTF-8"?><svg xmlns="http://www.w3.org/2000/svg" viewBox="0 0 173.63 173.63"><defs><style>.d{fill:#facdd3;}.e{fill:#27272a;}</style></defs><g id="a"/><g id="b"><g id="c"><rect class="e" width="173.63" height="173.63"/><path class="d" d="M117.77,153.6c-.68,.2-1.07,0-1.86,.1-.49,0,.2-.49-.1-.59-.59,.2-.49,.59-.78,.39,0-.49-.59-.78-.59-1.27h.2c0-.29,.2-.59-.1-.68,.2-.49,.49,.1,.98,0,.29,0-.2,.59-.1,.78,.1,.29,.59,.39,.98,.39,.39-.29-.29-.39-.29-.68,.1-.29,.49-.49,.49-.68-.1-.29-1.56,0-1.86-.68-.59,.2-.49-.2-.98-.39-.39,.39,.39,.49,.49,.98,0,.59-.39,.2-.49,.29,.1,.49,.39,.1,.39,.68l-.29,.29c-.49-.39-.39-1.27-1.07-1.46-.1-.2-.39-.39-.1-.68-.29-.68-1.27-.78-1.46-1.07-.98-2.05-1.95-1.17-2.25-3.42l.29-.59c.1-.2-.1-1.37-.29-1.37-.59,.2,.1,1.17-.49,1.27-.1-.49-.39-.88-.29-1.37,0-.2-.68,.2-.68-.2-.1-.88-.78-1.76-.39-2.54-.29-.2-.39,.68-.68,.39-.2-.39,.1-.49,.1-.68,0-.59-.78-.68-.98-.98,.49-.59,.59-1.37,.39-2.15-.29-.39-.78,.49-.88,0-.1-.98,.29-1.37,.29-2.05-.59-.68-2.15-5.86-1.76-6.05,1.17-.78,.88-1.46,.78-2.54-.29-.2-.39,.29-.78,.2,.1,.29,.2,.39-.1,.68-.2,.1-.1-.29-.49-.29-.29-1.07-.59-3.81-.98-6.05-.1-.49-1.07-8.3-.88-9.77-.1-.29-.59,.39-.68-.2,0-.78,.98-1.86,.88-2.73-.49,0-.59,.88-.78,1.17-.98,.2,.29-1.86-.2-2.25-.2,0,0,.39-.29,.2-.39-.59-.39-1.56-.1-2.05,.29,0,.2,.98,.39,.98,.49-.29-.2-1.27,0-1.66,0-.39-.59-.29-.39-.78,.59-.29,1.17-.68,.39-1.27-.2-.1-.2,.49-.49,.39v-.68c0-.49,.49-.1,.59-.49,.59-.2,.29-.39-.39-.68-.1-.29-.1-.59-.1-1.27,0-2.34-.39-3.61-.29-6.35-.1-.29,.2-1.07,0-1.46-.1-.29-.29-.88,0-1.27,.29-.29-.29-.49-.1-.78,.1-.49,.1-.88,.59-.98,.2,0,0,1.86,.2,2.05,.39-.1,.2-.39,.49-.49,.2-.29-.1-.39-.29-.59-.1-.68,.29-.39,.49-.78-.29-.49-1.46-.59-1.46-1.17,0-2.73,.49-10.25,.49-14.94-1.17,6.45-3.91,16.21-6.64,24.22-.2,1.37-1.37,2.64-.68,3.22-2.93,11.33-7.81,19.04-10.94,30.37-.39,.1-.2-.68-.49-.68-.39,1.37,.2,2.15-.39,3.03l-.59-.2c-.1,.49,0,.49,.1,.68-.49,.29-.98,0-1.37-.2-.29,.78,.59,2.34-1.17,1.86-1.95,1.95-4.3,3.71-7.91,3.71,0-.59,.88-.39,.78-.98-.39,0-.78-.29-1.37-.2-.29,.1-.1-.68-.49-.88-.39-.1-.1,.49-.49,.39-1.56-3.03-5.08-3.42-4.98-7.32,0-.49,.2-.49,.49-.39,.78-.29-.49-3.22-.98-3.22-.2,.1,0,1.56-.39,1.56-1.17-2.44,.2-2.73,0-3.12-.59-.2-.39,.2-1.07,.2,0-.39-.49-.29-.49-.68,.1-.78,.78-.68,1.27-1.07,.1-1.07-.1-2.25-.39-2.15-.39,.2-.29,.68-.29,1.46,0,.49-.78,.59-.88,.98-.29-.59-.88-1.46-.39-2.15,.29-.1,.39,.68,.59,.49,.29-.2,.29-1.46,0-1.86-.29,.1-.2,.68-.49,.88,0-.2-.49,0-.59-.68-.1-.49,.39-.29,.39-.49,0-.78-.49-.39-.68-.49-1.27-3.32-2.25-11.33-3.12-15.14-.88,2.64-2.25,10.84-3.42,11.43-.1,1.95-.59,4.98-1.95,6.05,.29,1.17-.78,1.95-.49,2.34-.39,.29-.29,.98-.49,1.46-.2,.1-.1-.39-.39-.29,0,.39,.39,.59,.39,.88-1.95,4.2-2.64,10.06-5.86,13.48,.49,1.27-1.07,1.17-.78,2.34-1.17,.78-2.44,2.44-2.73,3.61-1.56,1.95-4.2,3.32-6.74,3.91-1.95,.49-5.96,0-7.42-.68,.1-.39,.59,0,.59-.2-1.07-.88-2.05-.49-2.93-1.56-.39-.49-.78-.29-.98,0,.59-.2,.88,.68,1.27,.59,.2,0,.49,.39,.29,.68-.59-.49-1.95-.68-2.25-1.66,.1-.29,.2-.1,.59-.1-.2-.78-.88-.49-.98-.88-.29-1.37-1.66-2.05-2.25-3.32-.2,.49,.1,.68-.2,1.17-.68-.78-.2-2.54-.49-2.93-.2,0-.1,.39-.29,.49-.1-.1-.39-.49-.39-.88,.59-.49,.49-.68,.29-1.56-.2-.39-.1,.39-.39,.39-.1-1.17-.2-2.54-.2-3.91,0-10.25,10.35-20.31,15.53-16.41-2.25,.68-4,2.05-4.88,4.1-.2,.2-.2-.29-.29-.1-.78,.98-2.44,1.27-2.34,2.83-.1,.2-.59,0-.68,.29,0,.2,.49,.1,.39,.59-1.27,.2-2.93,2.73-2.83,3.61,0,.29,.39-.2,.59,.1-.39,.2-.1,.59-.49,.78,.29,0,.29-.2,.39,0,.1,.29-.29,.39-.68,.39,.1,.39-.1,.29-.1,.59,0,.2,.2,.1,.39,.2-1.07,.59-.68,.98-.98,2.25,.1,.2,.59,.29,.59,.68-.29,0-.39,.2-.68,.2,.2,2.34,.78,5.37,2.15,6.93,.49-.39-.1-.88,.78-.68-.68,.59,.39,1.56-.2,1.56,.1,.39,.29,.59,.49,.88,.1-.1,.1-.39,.29-.2-.1,.2-.1,.68,.39,.49-.1,.49,0,.98,.2,1.07,.2,.29,.2-.29,.59-.29-.2-.29-.59-.29-.39-.49,.59-.2,1.37,.2,1.37,.78-.39,.29-.29-.1-.49,0,0,.2,.2,.1,.29,.39,.29-.1,.49-.1,.49-.49,.39,.49,.78,.49,1.17,.88,.49,0,2.44,.59,4,.1,10.45-2.93,16.21-32.23,21.29-49.71,.1-.29-.39,0-.29-.29,1.07-2.34,.29-5.27,0-8.01,.78-.29,.59-.68,.49-1.56-.1-.29-.2,.68-.49,.49,.1-.59-.1-.98,0-1.37h.29c-.68-4.98-.88-9.77-1.37-14.36-.2-1.07,1.27-.88,1.27-1.66,0-.2-.49-.39-.59-.59,0-1.17-.1-2.93-.1-4.49-.49,1.17,0,3.52-.88,4.88-.49-4.2-.49-12.3,.29-13.57,.1-.39,.78-.68,.88-.59-.2-.39-.1-.68-.39-.88-.2,0-.29,.39-.59,.29-.49-1.07,.39-2.93-.1-3.71,.2-.2,.68-.59,.39-.88-.2,.2-.39,0-.39-.29,.39-.49,.59-1.37,0-1.76-.1-.78,.68-1.07,.39-1.66-.2,0-.29,.29-.49,.2,0-1.07,.29-1.76,.59-3.03-.2,0-.29,.39-.59,.39,0-.98,.39-.78,.78-1.07-.2-.49,0-.68-.29-.98,0,0-.2,.1-.2,.29-.39,.2,0-.39-.2-.59,0-.49,.39-.1,.68-.1,.2-.2,.49-.39,.49-.78,0-.1-.49,.1-.39-.39-.39-.2-.39,.29-.68,0-.1-.1,.29-.1,.2-.59,.1-.29,.39,.2,.49-.29,0-.29-.59-.39-.29-.68,.39-.68-.39-.29-.2-1.07,.59,.29,.1-.49,.59-.29,0-.39-.29-.59-.49-.68,0-.59,.29-.2,.29-.68,.49,.1,.68,.78,.68,1.27,.2-.39,.2-.88,.2-1.37,.49,0,.39,1.17,.59,1.56,.98-1.27,.1-3.42,.39-4.79-.39-.2-.1,.39-.49,.39,.2-.29-.2-.88,.29-.98,.1-.2-.2-.29-.2-.49-.29,.39-.29,.98-.39,1.56-.1,.29-.1-.29-.29-.29-.39,.49-.29,1.66-.39,2.54-.49-.1-.29,.39-.68,.39-.2-2.64,.68-4.98,1.27-7.62-.2-.98,.2-1.66,.39-2.25,.29,.49,.2,.2,.29,.68,.29-.1,.29-.59,.49-.98q.1,.1,.2,.1c-.1-.59,.39-.59,.1-.98,.59-.1,.68-.49,1.07-.59,0-.2,.2-.68-.2-.59,.29-.59,.39-1.46,.98-1.27,0-.39-.88,0-1.07-.2,.2-.29,.49-.88,.88-.59-.1-.39-.59-.29-.49-.59,.29-.39,.78,.2,.68,.49,2.34-.78,4.98,0,7.52,.68,0,1.76,2.73,2.05,2.73,3.71-1.27,3.71,.1,6.35,.78,10.16,.29-.88,1.46-.88,2.34-.98-.29,.78,.29,2.15-.78,2.25,1.07,.59-.1,1.86,.29,3.12-1.46,.2-.29,1.66-.98,2.25,.78,2.44,.49,4.3,.78,7.03,.78-1.66,0-3.81,1.46-5.08-2.73,25.49,2.05,52.64,8.3,76.76,.49-1.07,1.07-1.76,.68-2.54,.2-.2,.78,.1,.49,.49,.49,.29,.49-.88,.88-1.27-.39-.29-.1-1.07,.29-1.76,.98,.29,.68-1.46,1.37-1.86q-.29-.29-.29-.59c.1-.29,.29,0,.39-.39-.2-.29,.39-.49,.2-1.07,.29-.1,.29-.49,.68-.39,.1-.2-.29-.29-.29-.49,.98-.78,1.27-2.05,1.27-3.32,0-.39,.39,.29,.49-.2,.39-2.34,1.56-4.49,1.95-6.54,.1-.59,.29,.1,.39-.29,.39-1.46,.49-3.32,1.56-4.49,.2-.49-.39-.88-.1-1.27,.98-.88,.78-2.83,.98-4,1.46-3.61,3.22-8.79,4.1-13.48,.2-.29,.2,.2,.49,.1-.2-1.76,1.17-4.88,.98-6.74,.78-1.37,.39-3.22,1.27-4.69,.49-.59,.59-.98,.68-2.44,.2,0,.1,.2,.29,0,.1-.78,.1-.98,.39-1.37,0-.29-.1-.39-.39-.59,.2-.49,.49-.2,.78-.2,0-.98-.29-1.66,.1-1.86,.1,.1,.1,.59,.29,.59,.2-.98,.49-1.95,.29-2.93h.39c.29-.39-.29-.59,0-1.07,.39,0,0-1.17,.78-1.17,.1-.39,1.56-6.64,1.95-9.77,.68,.1,.2,.88,.59,1.17,.59-.29-.39-1.66-.1-1.95,.2-.2,.59,.49,.88,0,.2-.39-.49-.68-.2-.98,1.27-1.07,.68-3.52,.98-6.15,0-.88-.68-1.07-.68-1.37,0-1.17,.29-3.03-.1-3.12-.29,0-1.07,5.08-.68,5.18,.59,0,.2-1.07,.68-1.07,.1,.2-.29,.88,.39,.68,0,.59,.1,2.44-.39,2.64-.2-.2,.29-1.46-.2-1.37-.39,.68-.1-.39-.68,0-.1,1.37,1.46,3.81-.2,4.49-.59,0,.29-.49-.29-1.27-.1-.29,.1-.29,.29-.29-1.07-4,.78-8.98,.78-12.5,1.27,.1,1.76-4.1,1.07-5.86-.88,0,.49,3.22-.39,3.32-.78-.1-.29,1.37-.88,1.56-.49,0,.1-.68-.2-1.07-.49-.59,.2-1.37,.68-1.07,.2-.78,0-1.27-.49-1.56-.78-.49,.49-2.64,1.66-3.42,.2,.1,.1,.2,.2,.59,.2,0,.2-.29,.1-.49,.29,0,.59,.49,.49,.59,.78-.1,.88-.49,1.66-.78,.1-.29-.29-.1-.29-.39,.88-.68,1.95-1.37,3.12-1.17,.88-.68,1.46-1.27,3.03-.98l-.1,.68c.39-.29,.29,.2,.88-.1,.1,.39,0,.29,0,.68,.1,.1,.49-.29,.68,0,.1,.29-.1,.39-.1,.59,.49,.1,.39-.29,.68-.29,0,.78-.49,.68-.1,1.27,.49,.1,.68-.2,.78-.39,.1,.39,.1,.68,.2,1.37,.49-.1,1.17,.29,.88,1.07,.1,.1,.49,.2,.49,0,.1,.59,.49,2.05,.1,2.93,.1,.29,.68,0,.78,.29,0,.1,0,.2,.1,.2-.1,.78-.78,1.27-.59,2.15,.39,0,.39-.49,.78-.39,.68,1.76-.49,3.32-.98,4.79-.49,12.89-.78,26.56-.78,39.94-.49,3.71-.29,8.98-.49,13.18,.39,2.73,1.17,7.23,.2,9.08,1.66,14.65,4.98,40.92,9.08,41.02,1.76,0,1.76-1.37,1.95-1.37q.1,0,.2,.2c.2,0,.49-1.76,.88-1.86,.59,.1,.39-.68,.59-.98,.78,0,.59-.59,1.07-.78,.1-.49-.49-.2-.2-.68,.39,0,.29-.39,.68-.1,.29-1.76,1.27-2.93,2.64-4.79,0-1.07,1.17-.59,.98-2.54,.2-1.37,1.46-1.76,1.56-2.05,0-.1,0-.59-.1-.59,0-.39,1.07-1.86,1.07-2.54,.1-.29,.68,0,.78-.2-.1-.2-.29-.29-.29-.49,.49-1.27,.98-2.05,1.27-2.64,.2-.29,.59-.2,.59-.39-.29-1.07,.98-1.56,.49-2.64,.49-.78,1.07-1.27,1.17-1.95,.29,0,.39-.2,.49-.29,.39-1.56,.98-2.64,1.37-4.2h.49c.1-.88,.2-1.56,.98-2.05-.1-.68,.29-.59,0-1.56,.1-.49,.68-.39,.78,0-.2,.2-.29,.49-.1,.49,.49-.1,.49-1.76-.1-1.56-.2-.49,1.07-1.56,.98-2.83,.88,.68,.98-1.27,1.17-2.15,.78,.2,.59-.49,.68-.78,0-.1-.2-.1-.29,0,.39-.59,.49-.98,.68-1.56,.39,.1,0,.29,.39,.49,0-.2,0-.59,.1-.78,0-.1-.2-.1-.2-.1l.1-.59c.2-.1,.1-.2,.59-.1-.29-1.46,.39-1.95,.68-3.32,.39,.1-.1,.39-.1,.88,.68-.29,.68-1.46,.68-2.15,.29,0,.29,.29,.59,.29-.1,.1-.29,.68,0,.68,.2-.68,.49-1.56,0-1.76,.1-.68,.29-1.27,.29-1.66,.39-.1,.29,.1,.29,.39,.49-.1,.1-.88,.1-1.17,1.07-.1-.2-1.37,.98-1.46,.1,.49,.68-.39,.78,0-.29,.49,0,.59-.39,1.17,.2,.29,.59-.88,.88-.68,.1,.2-.39,1.27,0,1.17-.1,.2-.2,.39-.49,.39-.1,.2,0,.29,.29,.29,0,.68-.68,1.37-.59,2.05-.2,.1-.2-.1-.39,.2,.1,1.17,.1,2.05-.78,2.93,.2,.98-.49,3.52-1.27,3.81,.2,.78-.39,.78-.39,1.46l-.39,.1c.2,.29,.39,.29,.49,.68h-.39c-.2,.49,.1,1.17-.59,1.17-1.37,3.52-2.44,7.91-4.2,10.94-.2,.88-.49,2.83-1.46,3.22,.59,1.07-.68,2.34-1.07,3.81-.1-.1-.1,0-.39-.2-.2,2.83-1.17,2.54-1.56,4.69-3.61,8.4-4.69,9.96-8.69,17.77-1.76,4.3-3.81,5.66-5.37,7.91-.2,.2-.39-.1-.39-.1-.1,.49-.49,1.07-.88,1.56,0,.39,.2,.59-.1,1.07-.2-.2-.39-.29-.39-.59-1.95,2.34-3.81,3.42-8.4,4.39-.2,0-.2-.1-.2-.29Zm-47.07-24.71c.49-.39,.39-2.05,0-1.86-.2,.59-.49,0-.49,.39-.1,.39,.49,.49,.1,.88-.68-.59-1.37-2.05-.88-2.44,.59,.1,.1,1.07,.68,1.07,0-.39,.29-.49,.2-.98-.29,0-.49-.59-.59-.88,.39-.29,0-1.37-.29-1.27-.2,.1,.1,.68-.2,.78-.59-.2,0-1.56-.49-1.66s.2,.68-.29,.68c-.39-.98-.59-3.81-1.66-4.2-.59-3.32-.59-6.25-1.76-9.57-.2-2.54-.78-4.88-1.37-6.74-.68,.49,1.56,8.2,.98,8.5-.39,.29-1.66-7.71-2.25-7.71-.2,2.05,1.17,3.42,.68,5.27,.59,1.56,1.27,3.91,1.17,5.76,.1,.59,.39-.49,.39,0,.98,5.18,3.42,13.87,4.3,13.38-.59-2.34-2.44-6.45-2.05-6.84,1.56,2.73,1.76,7.13,4.59,8.89,.39-.29-.29-1.07-.78-1.46Zm2.54-3.52c.78-3.61-1.95-2.34-2.34-9.47-.1-1.17-1.37-.68-1.46-2.34-.1-.98,1.07-.39,.98-1.07-.39-1.27-1.17-.78-1.56-2.05-.1-.68,.88-2.64,.59-3.22-.39-.78-.49,1.95-.88,.49-.78-3.12-2.64-8.3-1.37-8.89,.98-.1,1.17-1.17,.98-1.56-.68-.88-.49-2.15-.59-4-.39-.68-1.27,1.66-1.37,.78-.1-2.15-.68-.2-.88-2.34-.1-.68,2.25-1.56,.98-3.22-.29,.39-.29,1.17-.68,1.27-.29-.1,0-.78-.29-.88-1.37,4.79,.78,9.57,.49,13.87,2.54,8.98,3.32,16.5,7.23,24.32,.98-.2,.39,2.44,.59,2.25,.78-.59,1.07-2.83-.39-3.91Zm33.01-12.11c-.29,0-.29,.78-.49,.59-.29-.29,.39-1.27,.68-1.07-.1-.39,.2-.49-.2-.88-.39,.1-.2,.59-.68,.59-.1,0-.2-.2-.2-.29-.1-.29,.39-.39,.29-.59-.29-1.37-.39-3.22,0-3.52,.39-.1,0,2.54,.78,2.25,.59-2.05,.1-4.3-.68-6.25-.49,.29,.29,2.15-.1,2.34-.88-5.08,0-9.77-.59-14.84-.39,0-.39,.88-.88,1.27,0-1.66-.68-3.52-.39-4.1,.78-.39,.29-.88,.2-1.86-.29-.88,.1-1.66,.2-1.46,.1,.1,.2,1.86,.59,1.76,0-.29,.29-.78,.1-1.17-.88-1.17-.39-2.05-.98-3.81,0-.49,.59-.1,.59-.49-.1-.29-.88-.68-.68-.98,.29-.78-.39-.39-.39-.88,.1-.59,.98,.1,.78-.39-1.37-2.93-.68-11.33-1.37-11.23-.1,.2-.49,.68-.49,1.27,.1,.2,.29,.68,.2,1.07-.2-.29-.39,.1-.49,.39,.29,0,.39,0,.59,.39-.2,.39-.98-.2-.98,.59,.39-.1,1.07,1.27,.88,1.37-.29,.2-.59-.78-.88-.49-.1,.88-.1,2.25,.49,2.54,1.66,.1-.2,3.81,.39,6.45h.2c0-.39-.1-.68,.29-1.07,1.27,5.08-.68,8.79,.49,13.28,.39,.1,.2-.39,.59-.49,.1,.49,.2,1.27,.1,1.46s-.39-.1-.39,0v.78c.29,.1,.29-.49,.39-.1,.1,.88-.39,.59-.39,.88,.29,.2,.29,.1,.59,0,.2,.59,.49,1.27,0,1.17-.2,0,.1-.39-.29-.49v.68c.2,.1,.49,.2,.49,.39,0,.29-.29,.39-.39,.59,0,.2,.29,.1,.29,.49-.29,.1-.39,.29-.49,.49,.39,.29,0,.68,.29,1.17,.1-.29,.2-.49,.29-.2,.2,.39-.1,.39-.29,.68,.1,.1,.29,.1,.39,.29-.2,0-.39,.1-.39,.29,.29,4.39,.49,8.89,1.07,13.18,.49,.1-.1,.98,.2,1.27,.59-.1,.88-3.12,.68-3.32Zm2.25-14.06c0-.49,.49,0,.49-.49,.49-5.86-1.66-13.48-.49-13.57,.59,.2,.98,.98,1.56,1.17,0-.49-.49-1.95-.98-1.66-.49-.29,.2-1.95,0-2.44-.1-.1-.39,0-.39-.29,.29-.59,.29-1.17,.1-2.15-.39-.1-.2,.59-.59,.39,0-1.37,2.25-2.83,1.95-4.2,.29,0,.2-2.44,.2-2.83-.59,0-.78,.68-.39,1.27-.1,.59-.39,.68-.59,.29-.2-.88,.49-2.54,.2-2.73-.49,.49-.2-.59-.68-.2,.2,.39-.1,.88-.2,.78-.2-.29-.1-1.46,.29-1.46-.39-.2-.49-1.07-.68-.49-.29,.49,1.17,7.13-.1,7.52-.1-1.86-.1-3.52-.2-4.88-.29-.1-.49,.39-.78,.2-.49-3.12,.88-4.79-.2-8.2-.2-.29-.88,1.27-.88,0,.1-.39,1.07-.78,.59-1.17-.88,.2,.1-.78-.78-.88-.2-.1,.1,.39-.39,.39,0-.39-.1-1.76,.1-2.15-.68-.29,.2-.78-.2-1.27-.1-.29-.49,.1-.49,.39,.1,.59,.59,2.15-.1,2.54,1.17,4.39,.1,8.98,.49,12.79,.59,.59,.29-.98,.59-.78,.29,.59,.39-.59,.68-.59,1.27,7.03,.39,19.04,1.17,19.14,.59,1.56-.1,2.93,.49,4.49-.2,0-.59-.29-.78,0,.39,1.37,.59,4.88,1.17,4.88,.1-1.37-.2-2.34-.2-3.81Z"/></g></g></svg>