<?xml version="1.0" encoding="UTF-8"?><svg xmlns="http://www.w3.org/2000/svg" viewBox="0 0 414.87 159.38"><defs><style>.d{fill:#facdd3;}</style></defs><g id="a"/><g id="b"><g id="c"><g><path class="d" d="M1.07,89.66c.1,.29,.1,1.66-.1,1.86-.88-.29-.29-3.22-.98-3.81,.2-.49,.1-1.46,.39-1.56,.29,0,.1,.59,.39,.59,.2,0,.2-.98,.39-1.37,.29-.2-.1,.98,.2,1.46-.29,.2-.2,.49-.49,.49-.2,.88,.88,1.86,.2,2.34Zm55.76-4.1c-3.71,10.35-16.21,34.86-22.66,41.7-.78,2.54-3.12,3.91-4.3,5.76-.2,.29-.2-.49-.59-.49s.1,.68-.39,.59c.39,.59,.29,1.27-.2,1.27-.2,0,0-.59,0-.78-.98,.2-.59,1.07-1.56,1.27-.2,.59,.49,.1,.59,.39,.1,.49-.98,.59-.98,.78,.39,.98-1.17,1.27-2.05,.78-.1-.29,.29-.2,.29-.49,.2,.2,.49,0,.59-.29,.1-.1,.2,.49,.39,.49,.49-.2,.2-1.27,.59-1.37-.59-.78-.88,.59-1.07,.39-.49-.49-1.17,.49-1.17,1.07-1.76,.39-5.18,.88-6.74-.39-.1-.49,.78-.2,.78-.39,0-.39-.59-.39-1.07-.29,.2-.49,.1-.88-.2-.88s-.29,.78-.29,1.37c-.78-.2-.98-.78-1.17-1.46-.1-.39-.39,.1-.68,.1-.68,0-1.07-1.95-2.15-2.34-1.95-1.66-4.79-7.13-6.25-11.23-.59-1.56,.98-.68,.98-1.27s-.49-.39-.68-1.07c-.88-3.12-1.27-6.54-1.86-11.23-.1,.39-.59,.29-.68,.59,.49,1.46,.88,4.49,.39,4.49-.59,0-.49-3.32-1.27-3.61,.2-.78-.49-1.46-.59-2.25-.2,0-.29,.1-.39,.29-.2,0,0-.49-.1-.59,1.07-.1-.49-2.93,.68-3.61,.29,0,.29,3.32,1.07,3.52,.68,0-.1-.49-.1-.59-.1-.2,.59,0,.29-.29-.29,0-.68-1.07-.29-1.27,.29,.1,0,.49,.2,.78,.2-.29,.2-.59,.59-.49-.1,.29,.1,1.37,.39,1.37,.68-.2-.68-2.44-.49-2.83-.29-.29-.49,.68-.78,.78,.1-.59-.49-.98-.2-1.17,.49-.88-.49-.59-.2-1.17-.29-.1-.29,.29-.39,.39-.2-.29,0-1.37,.2-1.56s-.29-2.64-.1-4.3c-.2,0-.2,.1-.29,.2-.29,0,.1-1.07,.1-1.17-.1-1.07-.29-1.66-.29-3.32-.68,.1-.29,1.86-.68,1.66-.29-.1-.1-1.46-.2-1.76,0-.39,.59-.2,.59-.1,.29-.39-.1-.59,.2-.98-.29,.39-1.07,.2-1.07,0,0-.39,.49-.59,.59-.88-.2-.2-.39,.2-.59,.2-.29-.29,0-3.61,.1-5.57,0-.29-.59,.39-.59,.1,0-.59,.98-1.37,.49-2.15-.29,0-.2,.39-.29,.59-.39-.39,0-.88,.29-.98,.2-.39-.68-.39-.1-.78-.1-.29-.68-.1-.78-.59,0-.59,.2,.1,.49-.2-.29-.59-.2-1.86,.1-1.86,.39,0,0,.88,.49,.98,.29-.1-.2-.78,.1-1.46,.1-.2-.68-.1-.49-.49,.29,0,.59-.49,.39-.59-.39-.39,.2-.1,.1-.78-.1-.29-.29,0-.39-.39,0-.2,.39,0,.39-.2-.1-.59,.29-.68,.2-1.07s-.2,.29-.39,.2c-.59-.39,.59-1.37-.1-1.37-.39,0,.39-1.07,.29-1.76,0-.2-.29,.39-.39,.2,.2-.59,0-1.76,.39-2.05-.2-.1-.29-2.34,.49-2.05,.59,.1-.2-3.22,.29-5.86-.2-.2-.49,.59-.68,.59-.29-.39,.39-2.34,.29-3.03,.68,0,.29,1.07,.78,.98,.29-.1-.2-.78,0-.88-.59-.29,.2-.29-.49-.68-.29-.29,1.17-2.54,1.27-4.39,0-.29-.49,.39-.88,.1-.29-.39,1.27-2.34,.68-2.73-.39-.1-.49,1.66-.78,1.76-.59,.1,0-.78-.49-.78-.29-.1,.39-1.46,.98-1.76-.29-.29,0-.59-.39-.68-.2-.59,.88-1.17,.2-1.76-.2-.29,.78-.98,.29-1.07,0-.39,1.07-.49,1.07-.1-.39,.39-.29,1.17-.1,1.27,.39,0,.49-2.25,1.07-2.15,.39,0-.29-.88,0-1.07-.88-.59-.59,1.86-1.76,1.37-.1-.29,.39-.39,.59-.88,0-.2-.39,0-.29-.29,.2-.98,.98-1.27,.98-2.25,0-.1,.1-.59-.1-.59s0,.78-.49,.59c.1-.1,0-1.37,.39-1.27-.2-.78-.29-1.66,.2-1.86,.68-.2,1.37-.49,.78-1.17-.1-.2,.88-.68,.2-.68,0-.49,.78-.49,.68-.68-.29-.49,.49-.59,.2-1.17-.29,.29-1.17,1.17-1.46,1.07-.29-.29,.68-2.73,.98-2.54,.2,.1-.49,1.46-.29,1.56s.39-.39,.88-.39c-.29-.2-.29-.59-.1-.88,.59,.39,.39-.39,.98,0-.1-.39,.2-.39,.1-.68-.49,.49,0-.78,0-.88-.2-.1-.39,.39-.59,.59-.39-.2,.2-1.07,.49-2.05-.1-.2-.2,.2-.49,0,0-.29,.78-.98,.49-1.17-.1-.2-.1,.59-.29,.49-.29,0-.2,.39-.39,.49-.68-.2,.39-1.46,.49-1.86,.49,.29,.59-.59,.88-.1,.49-.49-.98-.49-.39-1.27,.29,.29,.78,.29,.78,.1,0-.49-.78-.29-.39-1.07,.1-.2,.1,.39,.49,.2,.1,0,.59-.68,.59-.88-.2-.29-.59,.39-.88,.29-.2-.2,.2-.68,.59-1.07-.39-.49,.1-1.17-.1-1.76l.49-.68c-.29-.59,.78-.78,.68-1.27,0-2.15,1.95-4.2,1.86-7.13,.2-1.86,1.95-1.95,1.95-3.81l.59-.29c.1-.2-.49-.1-.49-.29,0-.49,.78-.49,1.07-1.17,0-.2-.29,.1-.29-.2,.2-.68,.68-2.05,1.86-2.05-.1-.1-.1-.29-.1-.49,.2,0,.2,.2,.39,.2,.88-2.25,3.71-4.49,6.05-5.27,.1-.1-.49-.1-.29-.2,.98-.59,2.34-.1,3.22-.2,.59-.39,7.13,1.56,8.98,5.27-.68,.29,.29,.29,.59,.49,.29,.29,.98,1.46,1.46,2.34,.29,.39-.1,.98,.2,1.56,.2,.1,.1-.39,.2-.39,.78,.59-.2,1.66,.78,1.66,.2,0,.2,.98,.59,1.46-.49,.39,.68,1.37,0,1.66-.2,.1,.1,.49,.49,.39,.1,.39-.49,.39-.59,.59,0,.29,.39,.1,.68,.1,.2,.1-.39,.98,.39,.68-.29,.68,.2,.39,.2,.78-.49,1.07,.2,1.56-.2,2.54,0,.1,.2,.1,.2,.1-.29,.49,.1,.59-.39,.98-.1,.2,.2,.49,.49,.78-.39,.2,.29,1.27-.39,1.27,.78,.39-.68,1.37,.29,1.56,.2,.49-.68,.59-.59,.88,0,.1,.59,0,.59,.59-.1,.2-.88-.29-.88-.1,.1,.29,.39,.59,.78,.59-.39,.78,.59,1.86-.2,2.64,0,.1,.29,0,.39,0-.29,.39,0,1.76-.88,1.95,0,.29,.29,.39,.49,.39,0,.2-.49,.78-.78,.68,.1,.2,.2,.39,.29,.29,.1,.2-.1,.2,0,.59,.29,.1,.1-.39,.39-.29,0,.29-.2,.68-.39,.68,.29,.39-.29-.1-.39,.29,.2,.1,.49,.98-.1,.98,.39,.39,.1,.2-.1,.59,0,.1,.2,.1,.2,.2,.29,0,.2-.39,.68-.29-.1,.88-.78,1.66-.68,2.25,0,.39-.29,0-.49,0,0,.29,0,.59,.49,.88,.2,.29-.1,.78-.1,1.46,0,.39-.29,.1-.59,.1,.29,.68-.1,.68,.39,1.17,0,.29-.39,.2-.59,.2,0,1.27,0,2.83-.88,3.71,.2,.88-.39,1.17-.68,1.76,.39,.59-1.17,1.56-.49,2.25-1.27,2.25-2.64,7.23-4.39,8.3-.2,.2,.1,.39,.1,.68-1.95,3.32-7.62,12.5-9.86,15.92-.49,7.52-.49,15.14,.59,28.52-.88,.39,.68,2.73,.39,3.42-1.46,1.76,.78,3.61,.49,5.66,.68,.39,.88,1.37,1.17,2.25,.1,.39-.59,.29-.39,.68,.88,1.56,1.86,3.22,1.95,5.27,.59,.98,1.07,3.42,2.44,3.42,1.07-.1,1.76-2.34,2.83-1.66,.2-.1,.29-.2,.2-.49,.2,0,.39,.1,.39,.39,.68-.1,.39-.78,.88-.88-.1-.98,.88-.68,.88-1.56l.2,.2c.49-.29,.1-.88,.2-1.17,.39-.2,.1,.29,.39,.29,.59-.29,.2-.98,.59-1.37,.2-.2,.29,.1,.39,.39,.29,0,1.76-1.86,1.66-2.93,.68,.1,.98-1.37,1.86-1.46,0-.39-.39-.49-.29-.98,.49-1.17,1.95-3.03,2.25-4.88,.29-.1,.1,.49,.49,.39-.29,.1-.49,.59-.39,.98,.39-.29,.2-1.07,.98-.68-.29-.78-.68-1.07-.29-1.66,.29,.2,.1,.49,.29,.59,.29-.29,.29-.88,.78-1.07-.88-.68,.49-1.86,.68-1.86,.1,.39-.29,.68,0,.88,.49-.2,.49-1.17,.1-1.27,.59-.39,.2-1.66,.68-2.15,.39,.29,0,1.27,.29,1.37,.29-.1-.49-1.37,.39-1.46-.1,.1,.2,.2,.29,.2,.1-.1,.1-.78-.29-.78-.2-.29,.68-.39,.78-.59-.1-.1-.39,0-.39-.1,0-.39,3.61-6.64,3.42-7.13,.78-.29,.68-2.34,1.46-3.42,.39,.29,0,.59,.1,.88,.39-.2,.49-.78,.98-.98-.1-.39,.88-2.93,1.07-3.42,.98,.29,.39-1.17,.88-1.46,0-.29-.29,.1-.59-.1,.2-.2,.49-.39,.78-.2-.1-.2,0-.39,.1-.39-.2-.2-.29,0-.49-.1,.1-.1,.49-.29,.1-.39,.2-.29,.39,.2,.49,.29,.39-.29,.88-2.05,.68-2.34,0-.49,.49-.49,.2-1.07,.29,.2,.39-.2,.49-.39,.2,.1,.2,.39,.49,.39-.1-.49,.59-2.15,.29-2.34,.29-.39,.49-.2,.88-.2,.1-.29-.39-.59-.1-.49,.29-1.07-.2,.1-.39-.2,0-.49,.68-2.73,.98-2.93,0,.2,.29,.2,.29,.49,.2,.1,.1-.1,.1-.29,.29,.29-.39-4.2,2.25-4,2.05,0-.78,8.59-2.93,14.55ZM1.46,61.83c.29,0,.29,2.34-.1,2.25,.39,.59-.1,.78,.2,1.46,.29,0,.29-.2,.29-.49,.39-.1,0,.49,.29,.49-.49,.29-.2,.59-.1,1.17h-.49v.49c.49-.2,0,.2-.39,.49,.1-1.07-.29-4.79,.29-5.86Zm.78,38.48c-.39-.1-.88-3.32-.59-3.42s.29,.29,.49,.2c.39-.29-.1-.68-.1-1.07-.39,0-.59-.1-.68-.29-.1-.29,.49,0,.29-.39-.39,.29-.1-.59-.29-.78,.49-.49,.39,.49,.68,.59,.2-.1-.1-.68,.2-.68,.39,.78,.39,2.83-.1,3.91,.1,.39,.29-.2,.59,0-.2,.49,0,1.95-.49,1.95Zm2.34-20.8c.49-.29,.2-.88,.68-1.27-.49-.29-.1-1.56-.49-1.66-.1,.59,0,1.27-.68,1.76,.39,.59-.49,1.86,.2,2.64-.1,.2-.39,.98-.2,1.27,0-.2,.29-.68,.29-.68,.2,.1,.39,.29,.2,.49-.2,.29-.2,1.66,.39,1.86,.29-.78,.39-2.05-.1-3.03-.39-.2,0,.39-.39,.2-.1-.68,.78-1.07,.1-1.56Zm3.22,8.3c.49-.88,1.37-2.44,.39-3.12,.2-.2,.39-.29,.29-.68-.29-.1-.59-1.17-.88-1.07,.49,1.37-.1,3.03,.2,4.88Zm.39-35.64c.2-.29,.49-.39,.88-.39,.49-1.37,2.25-4.1,.78-4.79,.29-1.07,1.76-2.54,.78-3.32,0-.29,.59-.2,.39-.39-.59-.88,.88-2.05,.78-2.73-.49,.2-1.46,.88-1.17,2.15-.88,.2,0,1.17-.88,1.27-.39,0,.39,1.76-.68,1.86,.1-.39,.29-.98,0-1.27-.68,.1-.39,.98-.59,1.46,0,.2,.39,0,.49,.29,0,.29-.49,.29-.78,.49-.2,.59,.49,.88,.98,.98-.1,.49-.98-.1-.98,.29,.2,1.17-.39,2.54,0,4.1Zm1.76,49.12c.2-.29,1.07-1.46,.78-1.66-.29,.2-.2-1.07-.49-.88-.49,.29,.1,1.56-.59,1.76-.2-1.66,.29-5.37-.2-5.37-.78,0-.2-1.66,0-2.34,0-.29-.49-.2-.49-.59,.2,0,.29-.2,.49-.2-.2-.49,0-1.37-.59-1.56-.49,.2-.98,4.49-.49,5.47,.78,4.3-.1,11.62,1.66,13.67,.2,2.54,1.46,6.25,1.46,9.08,.88,0,.78,1.46,1.27,1.46,1.17-.1-1.46-12.4-2.83-18.85Zm3.12-65.62c-.1-.39,.1-1.95-.39-2.05-.2,.59-1.17,.49-1.17,1.37,0,.2,.49,.39,.29,.59-1.56,.88,.29,3.61-1.07,4.59,.1,0,.1,.1,.1,.29,.88,.1,.39-.88,.98-.88,.1-1.56,.39-2.93,1.27-3.91Zm6.25,77.93c-.78,1.66,2.25,4.79,2.83,4.39,.29-.29-.39-.68-.39-1.27-1.56-.39-1.37-3.03-2.25-4,.68-.68-.1-1.66,.29-2.44l-.29-.2c.1-.39-.2-1.07-.39-1.95-.1-.29-.78,.39-.78-.2,.29,0,.1-.29,.2-.39-.2-.2-.39-.1-.49-.39,.29,0,.2-.29,.29-.39-.2-.1-.29-1.27-.59-1.07-.2,.1,0,.88-.29,.98,.49,.68-.2,1.17,.68,1.76,.2,.2-.49,0-.39,.39,.29,1.17,1.27,2.93,1.07,4-.2,.39,.59,.39,.49,.78Zm3.61,9.77c0-.39-.49-1.27-.29-1.76-.59-.29-.1-1.37-.39-1.56-.39-.1-.39,.78-.78,.59-.2-.2-.29-1.66-.59-1.76,0,.29-.29,.1-.29,.29-.1,.49,.29,1.27,0,1.56,.2,.39,.59,0,.59,.39-.59,.59,.68,.98,.59,1.76,.2,.29,.2-.49,.39-.39s.2,.29,.1,.49c.2,.2,.49,.59,.68,.39Zm.29-65.14c-1.07,3.32-.78,4.88-1.37,8.69,.2,0,.2,.39,.29,.2,1.27-2.25,2.34-3.22,3.81-5.66-.1,.1-.29,.1-.29,0,.68-.78,.98-1.37,1.76-1.66-.29-1.56,1.17-2.93,1.86-3.91,.1-.39-.29-.2-.2-.59,.2-.2,.59-.2,.78-.29,.2-.29-.29-.88,.2-.98h.39c0-.39,.39-.39,.49-.88-.49,0-.49,.78-.88,.39,1.95-3.81,2.44-5.76,4-9.96-.49-.78,1.07-2.05,.59-2.64,.68-.59,.39-.88,.68-1.46-.39-.1-.59,0-.68-.39,.2-.1,.49-.2,.49-.49-.39-.88,.49-1.07,.78-2.15,0-.29-.59,0-.59-.2,0-.68,1.46-3.22,1.17-3.22-.39,0-.39,.59-.39,.88-.1-.2-.49,.2-.59-.1-.1-.59,.49-1.76,.88-2.73,0-.29-.29,.29-.39-.1-.2-.68,.29-1.37,.49-1.66,.1-.39-.39-.2-.39-.49-.2-1.86,.49-4.79,.29-6.93,0-.29-.39,.39-.39,0-.1-2.34-.68-6.35-.98-6.35-.39,.2,.59,1.17-.39,1.46,.1-.88-1.17-2.73-.29-3.22-.88-2.64-2.05-5.18-3.52-4.98-.88,.1-5.08,13.48-5.27,21.58,.39,0,.1,1.07,.59,1.07-.2-3.22,3.22-18.36,4.2-18.46,.2,0,.2,4-.1,4.79-.78,.2-.29,2.34-.88,2.73-.78,.59-2.73,12.01-2.93,15.14,.49,.68-.39,3.91-.98,3.71-.1-.98,.59-3.03,.1-3.03-.49,.1,0-1.95-.59-1.66-2.05,3.91,2.05,7.81,.1,8.98-1.17,5.08-.78,10.45-1.66,13.18-.1,.2-.39-.49-.49,0-.1,.68,.39,.98,.29,1.37Zm2.64-44.04c.68,.2,1.17-4.3,2.15-5.27,.59-.1,1.37-.78,1.46-.1-.1,.29-.49,.1-.49,.39,.2,.29-.2,.88,0,.98,.29,0,.59-.68,.68-.88,.1-.49,.78-1.07,.59-1.27-.39-.29-.88-.98-1.07-.78-.2,.29-.59,.78-.78,.59,.1-.29,.39-.68,.2-.68-.49-.29-.98,.2-1.56,.2,.29,.68-.59,.88-.39,1.76-.29,.1-.68,.1-.68,.39,.1,.39,.68,.1,.68,.39-.29,.39-.88,3.91-.78,4.3Zm14.36,16.02v0Z"/><path class="d" d="M109.96,136.34c-.1-.2,.49-.2,.29-.39-1.46-.98-1.76-1.46-3.22-2.25-.39,0,.1,.59-.29,.59-.49,0-.49-.78-.98-.88-.2,0-.1-.98-.29-1.17-.29-.2-.1,.68-.29,.68-.39,0-.29-.39-.2-.68-.39-.29-.29,.39-.49,.2-.29-.49-.1-.59-.29-.98-.39,.49-.39-.49-.29-.68-1.17-1.17-1.95-3.91-3.03-5.47-.59-.88-.2-2.25-.78-2.34-.2,.1-.39,.49-.39,.68-.78-.98,.2-1.46,0-1.56-.39-.1-.49-.39-.29-.98,0-.68-.59,0-.68-.39-.2-1.07,1.37-1.66,.29-2.44,.78-.78-.2-2.05-.29-3.03-.2,.29-.1,.68-.68,.68,.1,.29,.2,.49,.49,.49,.1,.49,.1,.88-.2,.98-.29,.2-1.46-3.81-.39-3.81-.1,.29,.1,1.17,.1,1.56,.39,0,.29-.59,.59-.49,.29-.59-.1-.59,0-1.37,0-.29-.39,.1-.39-.1,.29-2.93-.29-7.32,0-10.35-.39-.2-1.07,1.86-1.17,2.83,0,.29-.29,.1-.49,0-.1,.78-.88,2.25-.59,3.12-2.44,5.86-7.23,17.38-9.47,16.89-2.44,4-6.35,9.47-10.55,10.74-2.25,.68-4.98,2.34-7.42,1.46-1.37-.78-4.1-1.27-5.08-2.64-.2-.1-.29,.68-.59,.29-1.46-1.66-3.52-3.32-4.98-5.27-2.83-4.49-4.69-9.47-5.37-14.55,.59-.68-.88-2.05-.59-2.25,.78-.49-.1-.78,.29-1.37,0-.29-.49,0-.49-.29,.1-.29,.29-.59-.2-.49,0-.39,.49-.88,.49-1.17,0-.49-.39,.1-.39-.29,0-.49,.59-.78,0-1.07,0-.59,.59-.59,.59-1.07-.78-.2,.39-1.27-.2-1.46,.68-.88-.1-.78,.49-1.27,0-.68-.49-.39-.49-.78s1.07-.29,1.07-.68c-.1-.39-.59-.49-.59-.68,0-.29,.29-.29,.59-.2,.29,0-.2-.49,.1-.78,.49,0,.1-.68,.29-.78,.1-.2-.39-.68-.59-.39,.2,.2-.2,.59-.39,.98l-.2-.2c-.2,.1-.1,1.37-.39,1.37-.39,0-.1-1.46-.49-1.27-.29-.59,.1-2.34,.39-3.12-.1-.39-.39-.29-.49-.39-.1-.29,.2-.29,.1-.59,.29-.1,.2,.2,.39,.2,.39-.78,.1-1.95,.49-2.73-.1-.49-.39-.2-.49-.49,.2-.39,.98-.49,1.46-.59-.78,1.27-.29,3.12-.88,4.59,.1,.29,.49,.1,.59,.29,.1,.29-.78,1.07-.39,1.37,.2,.2,.59-.2,.39-.78,.39-.1,.2,.78,.68,.59,.29,.1,0-.49,.1-.68,.2-.29,.2,.29,.59,.2,.29-.1-.1-.59,0-.98,1.66,.2,1.86-1.27,3.03-1.46,.2-.78-.29-.88,.2-1.76-.39-.2-.29,.59-.68,.49,0-.59,.49-2.34,.98-2.34,.29,0-.1,2.93,.29,2.93,.49,0-.29-2.54,.49-4.88,.2-.39,.2,.59,.49,.49,.1-3.81,2.64-7.03,2.93-12.3,.59,0,.2,1.46,.59,1.27,.29-.49,.68-2.25,.29-2.44,0-.2,0-1.07-.2-1.07-.59-.1-1.27,2.34-1.56,3.91-.1,.39-.59-.49-.78,.1,.1,.59-.39,.98-.39,1.27,0,.59,.78-.39,.78-.1-.29,1.46-1.56,3.52-1.76,5.96-.78,.39-.59-.98-.88-1.07,.1-.2,.29-.29,.59-.29,.1-.29,.2-1.46-.29-1.46-.59,0-.2,1.46-1.07,1.46-.39,0-.2,2.25-.68,2.25-.29,.2-.1-.78-.78-.68-.29-.78,.98-3.03,.78-3.52-.2-.39-.39,.88-.78,.68-.2-.39,.59-1.17,.88-2.05,0-.29-.59,.1-.59-.39-.2-.2,.39-1.07,0-1.07-.98-.2,.2,3.32-1.37,3.42-.49,.1,.59,.88-.2,.68-.49,0-.2,.68,.49,.88,0,.39-.59,.88-.78,.68-.39-.39,.1,.88,0,1.86-.49,.29-.29-.78-.49-.78-.2,.29-.39,.98-.39,1.37,.39,.49,.49-.49,.88,0,0,.88-1.56,1.56-1.66,.98,.98-12.01,5.66-23.34,13.77-30.47-.2-.59-1.27,.98-1.56,.59-.1-.2,1.76-2.25,2.05-2.25,.1,0,.1,.59,.29,.39,.1-.29,.39-.88,.78-.68-.1,.29-.49,.68-.2,.88,.68-.98,2.44-2.44,3.71-3.52-.2-.29-.88,.68-1.17,.49-.29-.29,.98-.59,1.07-.98,.2-.29,.59,.39,.59,.1,0-.49,.29,.1,.49,.1-.1,.78-.98,1.07-.98,1.76-1.07-.1-2.25,1.37-1.95,1.76,.49,.29,4.39-3.32,4.1-3.71-.2-.2-.88,.49-.98-.29,.88-.1,1.46-1.07,1.86-.88,.1,.2-.2,.68,.2,.68,.29,0,0-.98,.49-1.27,2.25-.88,6.45-2.83,6.93-2.64,1.56,.59,3.42-.1,4.88-.49,.29-.1,1.27,.49,1.86,.29,0-.2-.39-.2-.2-.39,.1-.1,1.95,.1,1.95,.2,0,.29-1.46-.1-1.46,.2,1.07,.1,2.34,.1,3.42,.59,.2,0-.1-.39,.2-.39,2.34,.59,7.62,1.07,8.3,3.52-1.46,.49,.59,1.86-.49,1.46-10.55-1.27-15.14,4.79-19.14,11.13-.1,1.17-1.66,4.2-2.05,6.25-.1,.39-.68-.68-.78-.29,0,.29,.29,1.17,.2,1.46-.2,.29-1.17-.39-1.07,.39,.49-.29,.39,.49,.88,.39-.2,.29,.1,.29,0,.59-.2,.68-.78,.88-.68,1.76,.1,.39-.68,.29-.98,.29-.29,.39,.49,.49,.59,.88,.1,.59-.98,1.17-.2,1.56-.2,1.86-1.86,3.81-1.37,5.27,.2,.49-.39,1.07-.68,1.56,.49,.39-.1,1.56,.1,2.05,.39,1.37-.88,2.64-.29,3.71-.59,.68-.1,2.64-.59,2.64-.2,0-.29-.88-.49-.88-.39,0-.2,1.37-.39,1.86,.2,.59,.39-.29,.88-.2,.59,.1,.2,1.56,.1,2.54-.39,.1-.39-.88-.59-.88-.2,.2-.2,1.27-.59,1.27,.59,.49,.39,1.27,.68,2.05,.29,.1,.2-.49,.49-.39,.59,.49-.39,1.86-.59,2.34-.29,1.37,.78,2.93,.2,4.39-.1,.2,.59-.2,.59,.2-.1,.49-.78,.98-.49,1.66,.2,.29,.29-.39,.68-.2-.49,1.86,.29,4.69-.68,6.15,1.86,0,1.07,6.93,4.79,7.81,.98,.68-.88,2.15-.2,2.73l.49,.49c9.57-7.81,15.62-26.56,18.16-33.01-.39-.2-.88,1.37-1.07,.59,0-.39,.1-1.07,.39-.98,.49,.1,0-.59,.29-.78,.1-.49-.29-1.27,.29-1.46s-.39,1.37,.39,1.37c-.1-.49,.49-1.07,0-1.56,.1-.29,.29-.98,.1-.98-.39,0-.29,.59-.59,.49s-.29-1.86,.39-1.76c.39-1.86-.1-2.15,.29-3.52-.68,0,.2-.49-.29-.88,.39-.49,.1-1.27,.88-1.66,0-1.17-.49-1.66,.29-2.73,.1-.29-.1-.59-.49-.68-.29-.1,.88-1.95,.49-2.83,.49-.39,.2-.98,.68-.88,.1-.29-.2-.39-.1-.68,0-.2,.49-.2,.29-.59-.29-.29-.2-.88,0-.88,.2,.1,.39,.49,.49,.68,.29-.1,.2-.78,.29-.98-.29-.49-.49-.1-.39-.78,0-.2,.2-.68,.59-.68,0-.88-.49-1.86,.49-2.64,0-.2-.49,0-.49,.1-.29-.29,.39-.68,.59-.98-.59-.1,.39-1.46,.68-1.86,.1-.29-.29-.1-.49-.49-.1-.59,.98-.78,.78-1.56-.39-.49,.29-1.07-.1-1.66-.39-1.37,2.64-4.69,1.17-6.05-.2-.49,.78-.59,.49-1.27,.49,.1,.2-.49,.59-.1,.29,0-.1-.59,0-.78,.2-.1,.49,.49,.59,.2-.29-.49,.1-.29-.1-.98,.59-.2,.39-.68,.49-1.27,.59,.1,.59,.49,.59,1.07,.59-.1,.49-.88,.2-1.17,0-.39,.39-.49,.49-.78,.39,.1,.29,.59,.49,.88,.29,.1,.29-.39,.59-.59,.49-.1,.39,.2,.78,.1,.2,.1,.1,.59,.39,.59,.49,0,.59-.59,1.17-.59,.29,0,0,.68,.2,.59l.98-.49c.68,.39,1.07,.59,1.66,.1,.29-.2,1.56,.88,2.15,1.56,.1,.2-.1,.68-.29,.88,.2,.29,.68-.2,.49-.59,.78,.29,.2,.59,.29,.68s.39,0,.49,0c.2,.39-.49,.39-.49,.78,0,.49,.49,.49,.29,1.17,.68-.1,.1-.98,.49-1.37,.2-.1,.49,.39,.2,.49,.49,.59,.29-.49,.49-.49,.88,.59-.1,1.76,.29,2.15,.29,.1,.49-.88,.68-.98,.59,0,1.27,1.37,2.25,1.27,.39-.1,.78,.98,.59,1.37-.2,.29-.49-.2-.59,.1,.29,.49-.2,.78-.68,.88,.2,1.17,.68,2.25,.59,3.71,2.05,.59-.49-3.03,1.27-3.71,.98,1.46,.49,3.42,.39,5.27-.1,.39-.59-.2-.59,.2,0,2.15,.29,4.1-.29,4.79-1.07,1.56-.68,4.69-1.27,6.74-.1,.59,.59-.29,.59,.2-3.03,15.43-3.61,39.45,.39,48.73,.68,.88-.98,1.95-.2,2.34,.49,.29-.49,.98-.59,1.86,3.12,0,9.47-9.86,12.6-16.89,4.88-11.04,8.59-22.27,11.82-32.81,.1,0,.1,.1,.2,.1-.39-.68,.68-1.66,.49-2.73,.68-.59,.49-1.46,.68-2.64,.68,.1,0-.88,.59-1.56,.98-1.27,0-3.42,1.46-3.42,.49,0,.39,.88,.2,1.17,.29,.1,.29,.49,.78,.2,1.46,.98-.49,2.93-.39,5.96-.49,0-.59,.2-.88,.39,.88,.68-.39,1.56,.1,2.64-.78,.78-1.37,1.86-.88,3.03-1.56,2.44-.98,5.47-2.25,9.08-1.07,2.34-1.86,4.49-2.05,6.54-5.27,15.62-13.77,36.52-20.8,37.01-1.56,1.07-3.71,1.66-5.86,1.66-1.95,0-4.49-.49-5.86-1.66Zm-56.64-40.53c.29-.1,.1-.59,.39-.59-.29-.39,.59-1.95-.29-2.15-.29,.1-.68,.1-.78,.39-.59-.1-.2-.59-.1-.88,.29-.2,.39,0,.88-.29,.39-.1,.49,.78,.88,.59s.39-2.83,.68-2.93c.78-.1,.78-.98,.98-.68,.1,.1,.39,1.07-.1,1.17-.1,.29,.59,.39,.68,.39-.1,.59-.59,.2-.68,.49,.68,.49-.2,.68,.39,1.27,.2,.1-.29,.49-.39,.68,0,.39,.78,0,.88,.1,.39,.2-.88,.29-.2,.88,.2,.98-.68,1.95-.68,2.73-.68-.2-.1-1.95-.78-2.15,.49-.39,.1-1.27-.2-1.37-.29,0-.49,.68-.59,.98,.1,.29,.39-.2,.39-.29,.29,.1-.2,1.17-.49,1.07-.1,.39,.39,.49,.68,.29,.29-.1,.59,2.44-.59,2.54,.2-.59,0-1.46,.1-1.95-1.07,.1,.29,2.34-1.37,1.95,.59-.59,.59-1.46,.29-2.25Zm1.86,8.89c.98-.1,0-1.07,.29-1.17,.59,.29,.49-.2,.88-.2,.29,.1-.49,4.39,.29,4.49,0-.39,.2-1.37,.29-1.66,.1,.29-.1,1.56,.2,1.56,.29-.68,.59-4.1,.39-4.98,0-.49-.59-.78-.59-1.27,1.46-.39,1.95-4.39,1.37-4.39-.2,.78-.88,.29-.88,1.37,0,.2,.39,.1,.49,.49-.49,.2-.68,.68-.59,1.17-.1,.39-.59,0-.68-.2,.29-.49,0-.88-.1-1.27-.78,.2-.29,2.05-1.07,2.25-.2,0-.1-1.07-.49-.98-.29,.39,.29,1.76-.59,1.86-.2,1.86,.88,4.2-.1,4.69-.2,0-.1-1.07-.49-.88s0,1.27-.1,1.66c-.39-.1-.59,1.27-.29,1.46,.2,0,.2-.68,.39-.78,.1,.78,1.07,.78,.59,2.25,1.07,0,1.17-4.49,.78-5.47Zm2.83,20.02c-.78-.98-.88-2.64-.39-3.81-.39-.29-.98,.39-1.17,.59-.59-.68,.49-3.91,.1-3.91-.59,.1-.1,1.27-.68,1.37-.49-1.56,0-3.81-.29-3.81-1.76,.29-.1,7.81,1.95,10.16,.59,.78,.88-.1,.49-.59Zm-1.66-16.5c-.49,0,0,4.1-.49,4.2-.2-.29,0-.98-.39-.88,0,.98,.2,2.54,.68,2.54,.59-.1,.78-5.86,.2-5.86Zm5.57-39.55c.2-.98,1.07-.68,.98-1.17-.29-.39,1.66-2.44,1.27-2.34-.39-.1-2.34,2.93-2.73,3.03-.49,.98-.68,1.66-.39,1.66,.39,0,.68-1.07,.88-1.17Zm35.25,43.26c.59-.39,.2-1.76,.2-2.25-.29,.1-.49,.78-.49,.98-.68-.78,.88-3.12,.88-3.61,.59,.1,.29,2.73,0,2.83,.39,.2-.29,1.37,.2,1.37,.1,.39-.1,1.66-.59,1.66,0-.59-.39-.78-.2-.98Z"/><path class="d" d="M148.54,154.99c0-1.56-1.07-4.2-.2-5.66,0-3.91,3.81-7.71,6.15-11.62-.2-1.46,6.25-8.59,11.91-16.89-.39-.39-.39-1.27-.59-1.27s0,.78-.2,.78c-.68-.88-1.76-4.49-2.05-4.39-.29,.2-.29,1.17-.59,.88-.78-.98,.2-2.25-.68-3.03-.2-.1-.29,.1-.29,.2-.59-.1,.2-.98-.1-.98-.1,0-.29,.59-.59,.39s-.59,.2-.29,.49c.2,.2,.29,.88-.2,.29-.88-.68-.68-1.76-.29-2.25,.1-.2-.59,0-.59,.1-.29-.39,.39-.59,.1-1.17-.2-.49-.39,.29-.59-.2-.59,0,.1,.49,0,.78-1.07-.2-.88-2.15-1.07-2.15-.29,.1,0,.78-.39,.59-.2-.68-.88-1.56-1.27-2.64-.39,.1,.29,.88,.1,1.07-.29-.2-.39-.68-.68-.68-.2-.1,.29-.49,0-.59-.39,.39-.29,0-.59-.2,0-.39,.29-.68,.2-.88-.29-.2-.2,.39-.49,.39,.39-1.17-1.66-1.56-.78-2.54-.1-.49-.78,.29-.88-.2-.29-1.27-1.66-1.95-1.66-3.12-.39-.29-1.17-.29-.98-.59,.2-.2-.2-.39,.1-.59,.1-.2-.1-.2-.49-.39s-.59-1.37-.88-1.95c-.39-.68-1.86-1.37-1.86-2.44-.68,.29-.39-1.17-.49-1.56-.1-.29-.1,.1-.29,0-.2-.2-.2-.49-.2-.78-.1-.2-.49,.39-.29,.68-.78,0-.88-1.95-1.27-3.03-.1-.29-.1,.29-.29,0-.68-1.37-2.34-3.71-2.25-5.66,0-.68-.78-1.17-.59-2.05,0-.29-.68,0-.59-.39,.49-.39-.78-1.17,.2-1.37,0-.2,.2-.29,0-.49-.1-.1-.49,.29-.39,0,.2-1.17-1.07-2.25-.59-3.52-.78-3.91-.88-11.33,2.73-18.07,.39-.2,.1,.68,.29,.68s.88-.98,.59-1.07c-.2,0-.49-.1-.39-.39,.88-.39,.68-1.56,1.66-1.86-.49-.29-.1-.88,.1-.98,.29,.1,0,.49,.2,.59,.39,0,.2-1.56,.98-1.37-.29-.39,.29-.39,.29-.88,.68,.29-.2,1.17-.1,1.27,.2,.1,.59,0,.39-.2,.2-.68,.49,0,.59-.2,.1-.29-.2-.68,.29-.78-.1-.59-.68-.1-.68-.29-.1-.59,2.93-2.54,4.3-4.1,.29-.29,.29,.29,.49,.2,.78-.68,1.66-1.95,2.73-2.05,.29-.29,.98-1.27,1.37-.88,.88-1.17,1.86-1.46,2.83-1.76,.1-.2-.2-.59,0-.68,.78,.49,1.07-.1,1.86,0-.1-.39-.29-.2-.68-.29,0-.78,1.56-.1,1.66-.68,.29-.39,.78,.39,1.17,0,0-.2-.59-.68-.1-.78,.88-.29,2.25,1.56,2.73,2.44,.49-.29,0-.39,.2-.88,.29-.29,.29,.68,.68,.59-.29,.68,.59,.29,.59,.68s-.68-.2-.49,.39c.29,.59,.88-.39,1.17,0,.98,1.76,2.34,1.17,3.32,2.05,.2,.1,.29,1.37,.88,1.37,0-.2,.1-.88-.29-.98,.2-.68,.88,.49,1.07,.39,.39,0-.29-.78,.39-.49-.1,.59,.39,.2,.68,.39,0,.29-.1,.39-.29,.39,.1,.2,.39,.29,.59,.29-.1,.39,.2,.59,.1,.88-.2,.29-.59-.88-1.17-.59,.29,.29,.29,1.07,.78,.88,0,.98,2.15,1.95,1.66,2.83-.49,.49-1.37-.88-2.25-.29,0-.59-.68-.1-.88-.39-.39,.29,.29,.49,.29,.88,.39-.2,.88,.1,.88,.39-1.37,.49-1.37,1.27-1.95,2.25,.2,.49,.78,0,.78,.39,0,.49-.59,.78-.49,1.07,.1,.49,.59,.1,.59,.59-.1,.68-2.15,1.76-2.15,2.73,.78-.49,1.46-1.07,1.56-.68-.2,.29-.59,.59-.98,1.07,.68-.1,1.46-.39,1.46,0-.2,.59-2.54,.68-2.64,.49-.29-.2,0,.59-.2,.59-1.76,.49-1.46,2.73-2.15,2.83-1.95,.68-2.25,2.93-4,4.39-.2,.29-.39-.29-.59-.2-1.66,2.83-2.25,5.66-2.25,8.5,0,10.25,12.7,29.49,14.84,32.91,.88-1.37,2.64-2.15,3.42-3.91-.49-.49,1.37-1.46,2.15-2.93-.1-.39-.29,.29-.49,0,.2-.49,.68-.78,.98-1.27,.29,.1-.1,.39,0,.59,.29-.39,.88-.68,.78-1.17-.59-.1,.49-1.66,.68-1.46,.59,.59,.49-.39,.68-.68,4.59-6.45,8.59-11.62,12.01-18.65,.98,.29,.49-1.86,1.27-1.76,1.27-2.64,.98-4.49,2.54-7.71,4.98,.78,.39,10.55-3.61,16.6-6.74,10.55-10.74,16.21-17.97,25.59,1.86,3.22,2.83,4.79,2.54,5.66-.29,1.56,.78,2.15,1.17,4,1.66,4.69,1.46,9.28,.2,9.28-.78,4.88-4.49,13.77-7.42,14.45-2.15,4.39-6.25,7.23-9.67,9.96-.29,1.46-6.35,2.83-8.4,2.83-3.32,0-6.35-1.56-8.2-4.39Zm3.03-103.81c.49-.2,1.07-1.07,.68-1.07-.1,.29-.2-.2-.29,0-.59,.98-2.73,1.17-2.44,2.93,.39-.1,.49,.49,.68,.1,.2-.78,1.27-1.07,1.37-1.95Zm10.16,102.34c.2-.1-.29-.29,0-.39,7.62-5.76,11.13-17.48,8.11-26.27-.29-.1,0,.49-.39,.29-.2-.68-.59-.78-.29-1.66-.59,0-.39-.59-.68-.78-3.71,4.69-5.57,8.59-8.98,11.91-2.73,4.3-6.54,9.96-7.13,12.7-.49,4,1.17,6.05,4,6.05,1.86,0,3.81-.68,5.37-1.86Zm-6.45-104c.2-.39-.2-.29,0-.68s1.86-.88,1.86-1.56c.29,.1,.59,.2,.59-.2-.2-.2-.39-.68-.59-.49-1.27,1.17-3.32,1.95-4.3,3.22,.2,.2,.98-.39,1.07-.49,.1,.29,.39,0,.49,.2-.1,.39-.49,.2-.68,.29-.2,.2-.1,.29,.1,.29,.39,.1,1.07-.2,1.46-.59Zm5.18-4.1c0-.49,.88-.78,1.07-.88-.2-.29-.78-.1-1.27,.1-.2,.1,.1,.39-.2,.68-.78-.59-1.37,1.17-2.15,.68,.2,1.07,1.27,.29,.98,.1,.39-.2,.39,.39,.78,.1,.1-.39,.88-.29,.78-.78Z"/><path class="d" d="M198.93,112.51c0-.2-.2,.1-.29,0-.1-.29,.59-1.37,0-1.86,0-.29,.39-.29,.29-.68-.1-.29-.39,.59-.59,.1,.49-.39-.1-1.27,.59-1.46v-.98c0-.29-.49,0-.49-.29,0-1.27,.98-1.46,.68-2.83-.29,0-.49,.39-.59,.59-.59-.49,.39-1.17,.49-1.46,.2-.59-.88-.39-.1-.68,.2-.1,.1-.59,0-.88-.29-.29-.39,.68-.59,.59-.78-2.44,1.66-3.61,1.07-5.18,.29-.59,1.76-.59,1.76,0-.59,1.27-.39,2.44-.59,3.71,.2,.2,.39-.1,.59,.29,.1,.29-1.07,.98-.98,1.27,.29,.39-.39,2.05,.59,2.54-.98,.78-.2,1.56-.39,3.12,.1,0,.49-.68,.68-.49-1.17,2.64-.1,8.98-2.15,9.08-.2-1.56,.1-3.22,0-4.49Zm.88,25.98c.2,.29,.88,.49,1.37,.49l.59-.78c-.49,.2-.78-.29-1.07-.1-.2,.2,.1,.39-.2,.59-.39-.2-.1-.78-.59-.98-.2,0-.29,.1-.39,.29-.39,.68-.68-.29-1.17-.29,0-.29,.2-.88,.1-1.27,.49-.1,.1,.78,.39,.78s0-.68,.2-.68c.29-.59-.39-.39-.29-.98,.1-.2,.78,.1,.88,.2,0-.39-.29-.68-.78-.68-.1-.39,.59-1.95-.1-2.05,.98-.98,.68,1.86,1.27,2.05,.49-.29-.2-1.66-.29-2.15-.1-.68,.68-2.34,.29-2.34-.29,0,0,.98-.49,.78-.29-.2,.29-2.15,.1-2.25-.59-.2-.29,3.03-.68,3.03-.29-.1,.1-1.95-.49-1.76-.29,0,0-.78,.29-.78,0-.29-.39-.88,.1-.98,0-1.37,1.17-3.71,.78-3.81-.39,0-.29,1.66-1.17,1.95,.49-.68,1.07-3.52,.59-3.52-.29,.1,0,.78-.59,.78,0-.49-.39-.98-.2-1.17,2.54-3.42,1.76-8.3,3.91-11.62,.1-.2,.49,.39,.49,.1-.1-.39-.1-.59,.1-.78s-.39-.2-.29-.39c.49-.59,.39-1.37,.78-1.95-.49-.49-.29,.78-.68,.88,.1-.2,0-1.07-.29-.68-.2-.88-.1-2.34,.59-2.34,.29,0-.39,1.07,.49,.88-.2-.39,.2-2.05-.1-2.15-.39-.1-.59,.59-.68,.78-.49,.2,.2-.78-.2-.78,.49-.39,1.07-.1,1.27-.78,0-.29-.39-.29-.29-.68-.49,0-.2-.78-.39-1.17-.2-.29-.68,1.37-.59,1.76,0,.39-1.56-.2-1.07-.39,1.07-.59,.68-2.25,1.37-2.83,.2-.29-.68-.29-.29-.68,.39-.1,0-.88,.29-.88,.2,0,.39,.59,.2,.98,.68,.2,.88-2.25-.49-2.64,0-.39,.29-.88-.2-.88,0-.68,1.56-.49,1.66-.98l.29-.68c-.49-.49-.39-1.56-1.46-1.56-.49-.2,.49-.68,.59-1.37,0-.29,.59,.29,.59-.2-.29-1.27,.29-2.15-.2-2.25-.39-.1-.29,.49-.49,.49-.49,0,.29-1.07,.1-1.76-.2-.39,.68-.78,.88-1.17,.1-.29-.2-.39-.2-.78-.49,.1-.59,.78-.88,.78-.59-.49,.98-1.07,.68-2.25-.2-.29-.2,.59-.59,.39,.2-.2,.49-.98,.68-1.27-.49-.68,.59-1.07,0-1.46-.29,.39-.78,.59-.78,.29s.39-.68,.68-.78c.2-.1-.39-.39-.68-.59-.68,0,.2,3.03-.39,4.2-1.56-1.66,.2,9.08-3.22,8.3-.39-.2,1.27-2.64-.1-4.3-.39-.29-.68,.59-.88,.2-.29-.78,1.66-1.46,1.66-2.73-.2-.49-.78,.39-1.07,0-.39-1.46-.39-3.22,.39-3.12,.88,.49,1.37-1.37,.98-1.56-.1-.68,1.46-1.17,.68-2.15-.29,0-.1,.49-.29,.59-.39-.59-.2-1.07,.1-1.37-.2-.1-.39-1.66-.78-1.56-.29,.1-.2,3.22-.29,4.3-.49-.1-.49,.29-.88,.2,.2-3.22,.1-6.25,.29-9.67,.1-.59,.68,.29,.88-.29,.2-.88-.1-1.76,.49-2.05,.68-.2,.1,2.83,.59,2.93,.39,0,.29-3.32,.78-3.32,.59-.1,1.07-.88,.29-1.17l-1.17,.2c0,.59-.39,.59-.68,.29-.68-.2,1.17-2.05,.2-2.64-.29-.29-.29,1.95-1.17,1.95,.29-.59-.2-3.81,.29-4,.59-.29,1.76-.29,1.76-1.17,.1-.29-.39-.1-.39-.29,1.07-.49,.29-1.66,.78-2.44-.2-.29-.59-.39-.39-.88,.49,.1,.88-.29,.78-.78-.1-.2-.68,.39-.78,.1,.1-.88,1.17-1.66,.88-1.95-.49-.39-.68,.29-1.07,.2,0,1.07-.39,3.71-.68,3.71-.29,.1-.2-1.27-.29-1.56-.49-.1-.88,0-1.07-.29,.1-.39,.88-.49,1.37-.49,.29-.39,.29-.98,.2-1.17-.29-.29-.68,.98-.88,.49-.59-7.32,.49-6.35,.68-13.18,0-.29,.68-1.27,.39-1.56-.2,0-.29,.59-.39,.59-.49,0,.2-1.46,.49-1.37,.1-.98,.1-.68,.49-1.86-.29,0-.88,1.07-.78,1.27-.78,.2,.1-1.27,.2-1.66,.2-.2,.2,0,.59,0l.1-.98c.1-.39-.78,.49-.68,0-.1-.29-.59,.2-.88,.1-.29-.78,.88-1.17,.68-1.66,.59-.29,.29-1.17,.49-1.37,0-.2-.39,.2-.29-.39,.98-.2,.59-3.71,1.66-3.71,0,.59,1.17,1.56,1.07,1.86,1.27-.39-.2-2.25,1.76-3.03,.59-.68-1.27-.68-.49-1.56,.68,.1,.59-.59,.98-.59,1.27,0,.78-1.95,2.05-2.54,0-.2-.39-.39-.2-.59,1.17-.59,1.46-1.76,2.64-2.73,.1-.2-.39,0-.29-.29,.2-.29,.88-.49,1.07-.68-.1-.49,1.27-.39,1.37-1.07,.78,.2-.49,1.95-.29,2.93,.1,.49-.2,0-.39,0v.88c-.1,.39-.68,.59-.78,1.07-.1,.2-.49,0-.49-.2-.68,.59,.1,1.95-.98,2.34,0,3.22-.49,4.88-2.34,7.32,0,.29,.49,.1,.39,.39-.49,1.17-1.17,2.54-.68,3.52-.68,.59-.49,1.76-.2,2.64,0,.2-.2,.29-.49,.2-.2,.49,.2,.49,.2,.78,0,.39,.29,1.76,.49,1.76,.29-.1,0-1.66,0-2.05,.68-.29,.2-1.95,.59-1.86,.39,3.22-.39,9.28,0,9.38,.88-.2,1.17-2.34,1.46-4,.1-.39,.29,.2,.39,0-.29-.68,.59-.98-.1-1.56,.39-.29,1.27-1.17,.68-2.05-.29,0-.1,.59-.39,.49-.68-.68,.78-.98,.88-1.66-1.07-.98,.2-2.83,.1-3.91-.1-.29-.2,.39-.59,.2-.29-.29,.98-1.17,.39-1.76,.29-.2,.1-.68,.59-.49,0-.39-.68-.2-.59-.49,.68-.49,0-.68,.2-.98,.1-.2,.59,.1,.59-.1s-.1-.49-.59-.59c0-.59,.88-.68,1.37-.88,0-.29-.2-.29-.1-.68-.29-.29-.59,.29-.78,.1-.39-.39,.78-1.46,.59-1.86,1.66-.2,.39-1.17,1.66-1.76-.68,.2-.59-.29-1.17,.1-.1-.68,.78-.59,1.17-1.27,0-.2-.2-.1-.2-.29-.29,0-.29,.39-.59,.29-.29-.29,.88-.78,.88-.98,0-.39-.39-.2-.49-.39-.2-.39,.59-.49,.68-.68,.1-.29-.29-.2-.39-.29,0-.29,.1-.68,.49-.68-.39-.59,0-.2,.1-.78,0-.29-.1-.39-.29-.2-.29-.98,1.27-.59,1.76-1.07,0-.49-.68-.29-.59-.78,0-.2-.68,.1-.88,.29-.39,0,.29-2.73,1.37-2.83,.2,.2-.49,.68-.1,.98,.78-.59,1.95-1.07,1.95-1.56,0-.29-.29,.1-.29-.2,0-.2-.39,.1-.59,0-.2-.29,.59-.78,.88-1.27,.1-.49-.29-.78,0-1.27,1.66-.1,1.95-1.95,3.71-1.76,.78-.88,1.95-2.93,2.44-2.73,.1,.2-.1,.49-.2,.68-.1,.29,.49-.1,.49,.2,.39-.29,.39-1.27-.2-1.37-.68,.1-.68,.39-1.07,.59-.59-.68-.78,.59-1.37,.1,0-.2,.49-.1,.49-.29-1.17-1.37-1.95,1.37-2.64,2.15-.1,0,0-.49-.2-.49-.39,0-.39,.98-.88,.98,.1,.39,.49-.1,.68,0,.1,.39-.78,.39-.98,1.37-.68-.29-.78,.29-1.07,.78-.1,.2,.29,.39,.29,.59v.29c-.1,.29-.59,.2-.59,.29-.29-.1,.2-.59,.1-.68-.68,.29-.78,.88-1.07,1.66-.29,.39-.59-.39-.88-.1-.1,.2,.39,.68,0,.59-.29-.1-.1,.98-.39,1.17-.49-.2-.49,.29-.68,.49-.78,.1-1.76,.78-2.05,.2,.29-.2,.78-.59,1.07-.68,.2-.2-.49-.59-.2-.68,.39-.1,.1-.39,.49-.59-.98-.98-1.86,2.44-2.73,3.81-.78,.29,.29,1.46-1.86,1.37-.39,0-.88,.39-.88,1.07-.59,0-.88,.68-1.27,.49-.49-.49,.98-3.22,1.46-3.42,.29-.1,.2,.29,.39,.29,.78-.1,.2-.68,.29-.98-.29-.29-.39,.49-.78,.29-.1-.2,.98-1.46,.78-1.66-.29-.2-.29,.68-.98,.49-.1-.29,.68-.68,0-.78-.39-.2,1.07-2.15,1.66-3.22,.2-.39,.68,0,.78-.39,.29-.2,.1,.39,.39,.2,.49-.39,.39-1.37,.68-2.05,.2-.29,1.46-1.76,1.07-2.25,.68-.49,1.46-1.37,2.15-1.17,.49-.49,.49-1.76,1.07-1.76,.39,.1,.88-2.93,2.44-3.12-.1-.59,.39-.59,.39-1.17,0-.1-.39,.29-.39,.39-.88-.2,1.07-1.46,1.07-1.66,.78,.1-.29,.98-.39,.98,0,.2,.39-.1,.39,.29,.78-.2,.88-.78,.68-1.76-.2-.78,2.25-.49,2.64-2.05,.98-.39,1.66-.2,2.64,.2,.29,.2-.1-.59,.29-.49,2.54,.39,4,1.66,6.25,2.05,.29,.1,0-.2,.2-.29,.29-.2,.78,.68,.98,.49,.1-.49,1.17,.2,1.46,.1,.2-.1-.29-.39,.2-.59,.1,.29,.29,.49,.68,.39,.29,.1-.1,.2-.1,.39,.2,.2,.59,0,.49-.49,.1,.29,.68-.78,.98,.1,1.37,.1,.29,1.27,.88,2.05,.29,.2,.39-.2,.68-.2,0,.49,.29,.2,.39,.39-.1,.29,.2,.29,.1,.68,.2,0,.29-.1,.29-.29,.49,.1,0,.98,.49,.59,.2,.1,0,.59,.39,.49s-.1,.68,.1,.98c.2,.1,.39-.39,.49-.1,.2,1.37,.49,2.54,.1,3.22-.2,.39,.49,0,.49,.29,0,.68-.78,2.15-.59,2.44,.1,.29,.2-.1,.59,0,.1,2.54-1.56,8.89-1.56,9.86,0,.49-.98,1.27-.98,1.86,.1,.29,.29-.1,.49,0,.2,.2-.49,1.76-.68,1.56-.49-.29-.98,.88-1.27,1.27,.29,.29,.68-.68,.88-.39s-.78,.98-.78,1.95c-.1,.29-.39-.2-.49,.1,.29,.29-.1,.49-.1,1.07-.59,0-1.27,2.05-1.56,2.34-1.27,1.07-1.27,3.12-2.83,3.61,.49,.29-1.07,2.44-1.56,3.03-.1,.1,.29,.1,.29,.2-.2,.49-.59,0-.78,.39-.1,.49-1.37,1.46-1.37,1.76,0,.1,.29,0,.29,.2-.2,.78-1.07,.78-.98,1.86-1.07,.1-.49,1.17-1.37,1.27,.59,.39-2.44,3.61-3.61,4.98,.1,7.91-.78,8.11-.68,16.89,.98,0-.29,2.54,.49,3.22-1.66,.39-.68,2.73-1.07,4.1-1.07,.98,.1,3.81-.59,4.69,2.93-3.12,4.59-7.71,7.91-10.74,3.22-5.76,9.08-9.28,14.45-13.28,.29,.2,.1,.68,0,.88,1.76,.2,1.66-2.83,2.83-2.64,.49,.59,1.66,1.27,2.44,1.17,.29,.2-.1,.78,.39,1.07,1.07,.2-.1-.88,.29-1.17,.78-.29,2.15,.78,3.52,.49,.78,.39,1.46,1.46,1.07,1.95-.39,0-1.27,1.27-1.07,1.46,.29,.2,.68-1.07,1.27-.78,.29,.29-.49,.39-.2,.68,.49,0,.78-.68,.68-.98,1.46-.49,1.07,2.15,1.37,2.15,.98-.78,.39-2.54,1.17-2.73h.59c.39,.1,.1,.88-.2,1.46-.98-.2,.1,1.66-.78,1.46-.29,0-.49,.59-.59,.78,.78-.2,.78,.1,1.66,0,.1-.98,1.76-1.27,1.76-2.15,.68-.2,1.17,.88,.98,1.95-.59,.29-1.56,.98-1.37,1.46,.29,.39,1.07-.78,2.05-1.17-.39-.39,.59-.29,.2-.59,.39-.59,.78,.39,.88,0,.68-.2-.2,.98,0,1.27-.39,0-.29-.49-.39-.59-.68,.39,0,1.17,.68,.78v.39c0,.68-.98,.49-.88,.78,.49,1.27,.2,3.22-.59,3.52l-.29-.59c-1.37,.68,.68,2.83,.2,3.71-.88,.98,.59,2.93-.78,3.42,.78,.98,.98,2.73,1.27,3.71,.78,3.32,.1,11.43,.49,11.52,.29-.1,.1-.59,.49-.49,1.37,10.64-3.22,38.38,0,38.38,2.15,0,11.91-17.38,13.67-20.61,.1-1.17,1.17-1.46,1.46-2.83,.29,0,.39-.2,.59,0,.39-.39,0-.98,.1-1.37,.78-.59,6.45-12.3,8.79-18.46,.29,.1,.49,.49,.68-.2,.2,0,.2,.2,.2,.39,.39-.49,.88-2.44,1.17-2.73-.2,0-.78,0-.59,.49-.29,0-.68-.29-.68,.2-.39,0,.1-.29-.1-.59,.59,0,1.07-3.12,1.17-3.32,0-.29-.29,.39-.59,0,.29-.29,.49-.29,.78-.29-.39-.1,.78-3.42,.49-4,.59,.2,.1-.59,.59-.49,0,.49-.1,.88-.29,1.07,.29,.29,.2-.59,1.27-.49-.29,.59-.1,.98-.39,1.76,.59-.68,.39-1.76,1.07-2.34,.78,.2-1.56,13.38-9.28,29.69-.59,.1-.2,.29-.68,.2-.49,.39-.39,2.25-.68,2.64-.29,.1-.2-.1-.59,.1-2.83,7.71-14.75,27.64-19.82,30.76-.88-.29-.59,.98-1.07,.88-.1-.29-.39-.39-.49,.49-.29,.2-.1-.39-.49-.29-.29,1.17-6.64,.98-6.84,1.76-.49,0-.2-.59-.59-.68,0-.49,.98,.2,.98-.29-.2-.39-1.66-.2-1.86,.1-.1,.49,.98,.68,.78,.98-1.07,.39-1.76,.1-2.83,.2-.49,0-.2-.39-.2-.78,.1-1.37-.29-1.37-.68-1.37-.2,0,.1,.88-.39,.88-.49,.1,0-.59-.39-.49-.29,.1,.2,.2-.1,.39-.2-.29-.39-.49-.49,0-.68,.1-.59-1.66-.98-1.66s-.78,.59-.29,.68c0,.68-1.37-.2-1.37-.49,0-2.05-3.42-4.59-4.2-4.69-.1-.78,1.95-1.07,2.44-.29,.29-.1-.1-.2,.1-.39-.29-1.95-.39-5.08-.1-7.13-.39,0-.78-.59-.49-1.17,.39,.1,.1,.78,.49,.78,.29-.1-.29-2.64,.2-2.73,.78,.1,.1-.78,.49-1.07,0-.29-.29,.1-.59,0,.1-.49,.68-.49,.78-.88,.1-.88-.49-1.37-.68-2.05-.2,0-.1,1.07-.1,1.27-.88,.2-.1-1.76-.59-1.66-.2-.39,.2-.68,.1-1.37,.1-.39,.39,.39,.39,.49,.39-.1-.1-.59,.1-.78,.1-.2-.2-.29-.29-.39-.1-.29,.2-.78,.39-1.17,0-.29-.49-.1-.59-.29,.49-2.83-.88-8.5,.59-8.89-.1-.29,.1-.78-.29-.78,.39-.39,.1-.88,.59-1.17,0-.29-.59-.1-.59-.39,.1-.49,.59-.59,.88-.78-.2-.59,.2-1.27,0-1.66-.39,.2-.39,.78-.88,.78-.29-.39,1.07-2.05,.59-2.83,1.46,0,.68-.88,1.07-1.76-.59-.29-.39,.88-.78,1.07-.49,.2-.2-.78-.59-.68,.1-.39,.29-.29,.39-.1,.39-.2-.1-1.07,.2-1.07,.49,.1,.68-.1,.78-.68,.39-.49,1.17,.59,1.37,.68-.98,.88,.78,1.66,.39,2.73-.39,0-.2,.49-.78,.39,.39,4.59-1.17,9.08,.49,12.89,.2,.2,.29-.39,.49-.29,.59,1.07-.98,2.05-1.56,3.22-.39,1.37,1.66,4.2,1.07,4.59-.29-.1-.59-.68-.78-.68s-.29,.29-.39,.49c.29,.49,.78,2.05,.29,1.95-.29,0-.1-.68-.39-.68s-.29,3.12-.1,4c.1,.2,.88,.2,.78,.78,1.07-.29-.49-2.05-.49-3.52,.29,.1,.88-.1,.68,.39,1.37,0,.68-2.73,1.17-2.83,.68,0,.29,1.66,.88,1.76,.29-.1,.29-2.73,.1-3.61,.68-.98-.1-3.91,.29-4s.1,.49,.29,.59c.59,.1,.39-.59,.98-.39-.1,.49-.1,1.46,.1,1.56,.59-.2,.39-2.25,1.07-2.44-.2-.88,.59-2.64,.29-2.93-.2-.2-.2,.39-.49,.2-.1-.39,.49-1.56,.39-1.95,0-.2-.1-.49-.29-.39-.29,.39-.29,1.17-.49,1.66-.49,.2-.1-.49-.39-.49-.29,.29-.39,1.27,.29,1.17-.39,.29,.29,1.56-.78,1.27,.39-.49-.59-.2-.1-.68-.2-.49-1.07,.2-1.46,0-.2-.1,.2-.49,.39-.49-.39-.78-.2-1.17-.29-1.86-.1-.29-.78-.1-.98,.49-.78-.59,.59-1.37,.88-1.56-.29-1.17,.2-.98,.2-2.15,.59-.2,.68-.98,1.17-1.17,.39-.1,.59,.49,.88,.49,.39,0,.49-.59,.78-.88,0-.59-.88-.88-.68-1.17s.59,.1,.78,.1c.39,0-.1-1.17,.2-1.76-.68-.59-.88,.88-1.27,.49-.49-.39-.49-2.25-.2-2.73,.29-.2,.49,.68,.78,.49,0-1.37-.98-1.76-1.27-2.83,.78-.29,.39-2.05,1.07-2.34,0-.39-.39-.1-.49-.1,.2-1.07,.68-1.66-.1-1.95,0-.29,.49-.49,.29-.68-.29-.49-.78,0-.68-.49,.1-.68,.59-1.17,.1-1.76,0-.2,.49-.1,.49-.39s-.2-.78-.39-.88c-.49,.49-.68,1.86-1.37,1.86-.1-.68,1.27-1.56,.29-1.86-.1-.2,.2-.39,.49-.39,.49,0,.2-1.07,.2-1.66-.29,0-.39,.49-.59,.49-.39,0,0,.59-.1,.68-.88-.1-.88,.39-.68,.98-1.46,.49,.29,2.44-.59,3.42,.49,.78,.2-.29,.59-.2,.78,.1-.29,2.64-.1,4.39-1.17,.2-.98-2.93-1.37-2.93-.39,.1-.1,.78-.49,.88,.1,.39,0,.68,.1,1.07,0,.2-.88-.1-.88,.39-.68,0,.2-1.17-.49-1.07,0-.49,.1-.29,.29-.29,.2-.88-.39-.59-.49-1.27,.2-.29,.59,.2,.68,.29,.59-.2-.1-1.17,.39-2.93-.39,0-.68,1.17-.68,2.05-.78,0,0-1.56-.39-1.37-.2-.2,0-.98,.59-1.17,.29-.39-.2-.49,.1-.78,.78-.49,1.07-2.73,.78-2.93-.39,.1-.49,1.07-.78,1.27,0,.29,.59,.1,.39,.49-.39,.2-.29,.1-.59-.1-.1,.39,.1,.29,.1,.59-.29,0-.1,.59-.39,.49-.1-.59,0-.49,0-.68-.2-.39-.78,.49-.39,.88,.39-.1-.2,.39-.2,.88-.2,.2,.1,.59-.2,.78,0,.59-.39,.68-.49,.39-.2-.98,.98-4.69,.88-6.64-.29,0-.29,2.25-.78,2.15-.78-.1,.59-1.76,0-2.44-.1-.39,.78-.88,.59-.98-.78-.98,.2-1.76-.2-2.64-.1-.49,.59-.39,.78-.68,.1-.39-.39-1.07,.2-.98,.39,.1,.98-5.76,.68-5.96s-.29,.68-.59,.49c-.39-.29,.1-2.54-.2-2.54s-.1,1.17-.78,.59c-.39,.2,.29,.68-.39,.68,.1,.29,.39,.39,.2,.98-.29,.1-.49,.78-.88,.29,.39-.78-.59-2.54,.39-3.32-.59-.68,.2-2.44,0-2.64-.39-.2-.98,.59-1.17,1.07-.29,0-.1-.59-.1-.68-1.46,1.56-3.71,4.1-4.39,4-.68-.29-1.27,.98-1.27,1.46-.39,.29-.2-.68-.39-.29-.29,.88-.98,1.27-1.37,1.95-.1,.49,.39-.2,.29,.2-.29,.88-.98,.49-.88,1.17-1.07,.2-1.37,2.15-2.25,3.22-.39,.2-.29-.88-.49-.49-.49,.98-1.27,2.05-1.27,2.93-.1,.78-1.46,1.66-1.66,2.83-1.17,.49-.68,1.37-2.15,2.64-.29,.49,.2,1.56-.29,1.37-.88-.29-.39,2.25-.88,1.95-.49-.59-.88,.49-1.56,.59,0,.68,1.07-.1,1.17,.39,0,.29-1.27,0-1.37,.39,0,.39,.68,.1,.49,.68-.39-.2-.98-.59-1.07-.29s.1,.59,.29,.78c.2-.2,.49,.1,.49-.29,.2,0,.1,.68,.29,.68-.1,.39-1.07,.2-.49,.59-.1,.39-.49,.1-.59,.39-.2,1.56,.39,1.46,.39,2.73,.29,3.42-.88,7.32-.1,10.74,.1,.39-.39-.2-.39,.1-.1,2.83,1.07,6.05,0,8.11,1.27,4.69-.29,8.4-.2,13.57-.1,.39-.59,.1-.78,.1,.1,.68-.39,.88-.78,1.56-.49,.78-4.2,4.2-3.42,4.98-.29,.29,.1,1.27-.29,1.46-.88,.39-2.05,1.46-2.83,.39-.39-.2-.49,.49-.98,.59-.29,.1-.29-.2-.78,0-.39,.2-.29-.59-.59-.49-.39,.2-1.27,0-1.27,.49,0,.2,.39,.78-.2,.68-.2-.39-.68-1.17-1.17-.98-.29,.1-.78,1.07-1.37,.88,.1-.2,.39-.88,.68-.78-.2-.29-.2-.88-.68-1.07-.49-.1-1.37,2.15,.39,2.44,0,.39-.59,.88-.88,1.07-.29,.1-.19-.29-.49-.29-.1,1.07-1.27-.68-1.27,.49-.49,.1-.49,.68-1.17,.39-.1,.29,.39,.2,.49,.39-.29,.29-.59-.2-.68,.59-.39-.2-.98,.2-1.66,.2,.1-.39-.78-.29-.29-.88Zm3.71-11.23c-.98-1.27,1.37-3.81-.39-4.88,.49-1.17,.39-2.44-.1-3.32,.39-1.07-.59-2.93,.49-3.61-.29-.39-.1-2.73-.59-2.83-.29,.2,0,1.07,.1,1.27,.1,.39-.68,0-.68,.29v.78c.29,.1,.29-.2,.59,0-.39,.29-.2,.68-.2,1.17-.1,0-.39-.2-.49-.2-.2,.2,.39,.98-.1,1.27,.39,3.52,.29,6.93-.29,9.77,.49,0,.78-.98,.88-.29,0,.2-.39,.1-.29,.39s.39,.2,.49,.49c-.2,0-.39,.88-.1,.98,.1-.2,.98-.98,.68-1.27Zm-.2-77.93c-.68-.49,.39-2.15-.68-2.54,.1-.88,.78-2.15,.2-2.64-.88-.1-.88,5.47-.59,8.3,.49,0,.49-1.76,1.07-3.12Zm5.27,29.88c-.59-.88,.88-2.15-.1-1.95-.1,.29-.1,.68-.49,.39,.2-1.17,1.86-2.93,1.07-3.81-.2,0-.39,.59-.59,.29-.2-1.27,2.05-3.12,1.17-4-.68,1.46-1.07,.49-1.46,1.17-.2,1.86,.2,4.39-.78,5.57,.29,.1,.1,.68,.39,.88-.78,.49-.68,1.86,.2,1.95,.29,.1,.2-.39,.59-.49Zm8.2-7.42c-1.37-2.44,.29-8.11-.39-8.98-2.34,.39-1.56,5.37-1.46,8.11-.29-.1-.59,.39-.49,.49,.29,0,.59,.29,.59,.49-.49,1.56-1.17,4.88,.59,5.57-.68-3.22,1.56-4.98,1.17-5.66Zm-.29-14.45c0-.29,.2-.59,.1-.78,.2-.2,.39,.2,.59-.1-.29-.39,.39-.59,.29-.88-.59-.59,.29-1.17-.29-1.46,.29-.29,0-.59,.29-.68,.29-.29,.39-3.22-.2-4.3-.2-.2-.68,.49-.88,.1,.1-.29,.39-.49,.39-.78-.39,0,.1-.49-.1-.59-.29-.1-.39,.68-.49,.39-.1-.49,.59-1.27,.29-1.27,0-.78,1.27-.29,1.27-.88,0-4.98,.78-9.77,1.17-15.04,1.17-1.46,.29-4.69,2.34-5.18,.2-.39-.39-.39-.29-.68h.29c-.2-.88,.39-1.95,.88-2.44,.2-.2-.29-.59,0-.78,.98-.49,1.07-1.56,1.17-2.05,.59-.2,3.12-4.3,4.3-7.03,0-.2-.59,.29-.68,.1,.2-.88,1.46-.88,1.66-1.66,.1-.2-.29-.29-.29-.49,.29,.1,.78-.49,.49-.59-.2,.1-.88,.68-.88,.39,.68-.68,1.95-1.46,1.86-1.76-.2-.29-.88,.1-.78-.1,0-.1,.78-.68,.49-.78,0,.1-.78,.68-.78,.2,.59-.2,.59-.68,1.07-.98v.29c.59,0,.29-.59,.59-.88-.68,.1-1.07-.49-1.86,0-1.95,2.05-3.32,4.1-5.37,5.66,.1,.39-.59-.1-.68,.39,0,.29-.49,.98-.2,1.07,0-.2,.78-.78,.78-.68-.1,.49-.49,1.07-.78,.98-.29-.2-.39,.49-.78,.39-.39,0-.78,1.07-.98,1.86,.59,.2,.2,.88,.68,1.07,.49,0,1.07-1.37,1.27-1.86,.2,.1,.68,.1,.78,.39-.49,2.64-1.95,1.95-1.66,4.2-1.56,3.03-2.34,5.66-3.22,9.38-1.86,2.83-.68,6.64-2.25,9.67-.39,6.64-1.46,18.85-.68,18.95,.68-.1,.49-.49,1.07-.78Zm12.11-24.12c1.07-.2,.98-1.37,1.56-1.95-.29-.59,.39-.88,.39-1.37,.1-.2-.59,0-.39-.2,.49-.39,1.76-1.56,1.56-2.25-.1-.39,.78-.78,.78-1.17s-.29,.29-.29-.1c0-.49,1.07-2.44,1.56-3.61l1.07-2.93c.1-.29,.68-.98,.49-1.37-.1-.1-.29,.39-.39,.29-.1-.2,.2-1.07,.78-1.46-.39-.49,0-.78-.2-1.27,.49-.29,.2-2.34,.39-2.54,.49-.59,.29-2.05,.1-2.05s0,.39-.29,.39c-.2,0-.49-2.25-1.17-2.64-.29-.1-.2,.29-.68,.2,.1,.78-.98,1.66-.98,2.15s0,1.07-1.07,.98c-.1,.39,.59,0,.39,.59h-.78c-.1,.29-.88,.68-.59,1.17,.29-.29,.68-.98,1.07-.88-.29,.29-.2,.98-.68,.98-.1,.2-.2,.78-.39,.88-.49,.2-.1-.39-.39-.29,0,.2-.1,.29-.39,.29,.29-.39,.2-.68-.1-.49,0,.39-.1,.29-.39,.49-.1,.1,.1,.29-.1,.39,.1,.59,.59-.49,.78,.1-.49,.1,.1,.39-.2,.49,.2,.29,.49-.39,.59-.1-.29,.39-.68,1.46-1.37,1.17,.2-.1,0-.59,.39-.49,.1-.59-.2-.2-.49-.39,0,.59-.59,.49-.68,.88,.39,0,.1,.2,.2,.29,.29,.1,.39-.1,.49,0,.2,.49-.88,.1-1.07,.68,.1,.39,.29-.1,.59,0l-.78,.88c-.29,.29-.78,1.46-.59,1.86,.2,0,.49-.39,.78-.1-.2,.49-.98,1.17-1.27,.98,0,.29,.2,.29,.29,.49-.39,.39-1.37-.39-1.27,.39,.2,.1,.49-.2,.49,.1-.1,.49,.29,.49,.2,.59-.2,.29-.68,.2-.78,.49,.78,.98-1.37,1.66-.59,2.25,0-.1,.2-.78,.49-.68-.29,.29,0,.59-.1,.98-.1,.29-.68-.1-.68,.2,0,.2,.39,.1,.39,.29-.29,0-.78,.49-.59,.59s.2-.29,.49-.2c.29,.2-.78,.59-.39,1.27-.59,0-.49,.78-.68,1.07-.1,.2,.39-.1,.29,.39-.68,3.52-2.15,8.4-2.34,13.87,2.25-3.32,4.59-6.54,6.54-10.55Z"/><path class="d" d="M285.45,84.58c-.59,0-1.37,2.54-1.27,4-.78-.1,0,1.27-.68,1.37-.39-2.25,.39-4.98,1.46-6.64,0-.39-.49,0-.59-.2,.1-.39,.49-1.66,.78-1.66,.49,.2-.29,.98,.1,1.27,.49-.39,.49-1.66,.68-2.15-.49-.2-.39,.39-.88,.29,.2-.88,.2-1.66,.88-2.73,.39,.1,.1,.49,0,.78,.39,0,.88-1.76,1.17-1.46,.2,.39-.88,2.44-.49,2.54,1.46-1.56,1.95-7.13,1.56-7.42-.29,0-.59,1.66-1.17,1.37,1.17-4.59,5.96-12.6,11.91-16.5,.29,.1-.1,.59-.1,.78,.59,.2,1.17-1.76,2.05-2.64,1.27-1.17,4.39-1.76,6.84-2.93,.39-.1,.2,.49,.49,.39,0-.68,.78-.2,1.27-1.07,.2,.2,.68,.1,.88,.39,.68-1.17,2.93-1.56,4.1-1.37,3.42,.68,7.42,.88,10.16,3.03,5.76,1.86,7.52,5.86,7.52,10.35,0,8.2-4.98,16.5-8.01,21-4.79,6.45-9.38,12.4-15.23,17.38,.2,3.81,.68,7.62,2.73,11.72,3.12-.49,2.34,11.91,10.84,11.91,12.5,0,27.15-33.79,32.81-55.66,7.03-.78-6.93,34.08-12.99,45.21-2.83,5.27-4.49,5.18-6.64,9.77-.29,.68-2.93,1.86-2.93,2.64,.29,.39,1.17-.98,1.56-.59,.49,.49-9.18,8.98-13.38,7.23-.49,.39-.98,1.37-1.56,.78-2.44,.88-5.27,1.56-8.2,1.56-21.19,0-31.45-28.71-25.68-52.73Zm14.26,46.58c.1-.39,2.83,1.46,3.12,.68,0-.39-3.52-1.56-4.88-2.93,0-.2,.78,.2,.88-.1,.2-.49-6.64-6.25-4.49-7.03,1.17,.78,3.22,5.18,3.91,4.88,.39-.39-2.44-3.71-2.05-4.1,.29,.29,1.37,.68,.98,1.27,.88-.1,1.07,1.37,1.46,.88-4.69-8.11-8.11-7.13-11.52-30.27-1.76,.29,.29,5.37-.78,5.86-2.05,.98,3.42,21.97,10.64,29.3,.39-.2-.29-.68,0-.78,.39-.2,2.05,3.12,2.73,3.03,.2-.29,0-.49,0-.68Zm26.86-65.82c0-1.86-.2-3.81-.78-5.76-.59-.1-.29,.59-.49,.78-1.76,.49-3.81,.29-4.59,1.66-.29-.2-.68,.29-1.07,.2,.2,.88-1.07,1.17-.88,2.05-7.03,3.71-8.98,16.89-10.55,23.24,1.07,1.95,.49,5.47,.49,7.81,7.81-7.52,17.87-21.09,17.87-29.98Z"/><path class="d" d="M349.12,132.92c0-1.95,.49-4.39,2.05-6.64,0-2.64,1.76-3.32,2.83-4.79,.39-.2,.29,.29,.49,.2,.49-1.07,1.76-2.34,2.64-2.54,.39-.98,1.46-.88,1.56-1.37-.1-1.07,1.56-1.07,1.66-1.86,0-.39,.49,0,.78-.29,.1-.2-.1-.49,0-.59,.2-.1,.39,.29,.68,.2-.1-.2-.1-.39,.1-.59,.88-.49,1.07-.98,1.86-1.07,.29,0-.29,.49,0,.59,.29,0,1.37-2.05,2.05-1.76,.29-.1,.59-.88,1.37-1.17-.29-.39,.59-.49,.78-1.27,.59,0-.1,.68,.2,.68,.29-.1,.78-1.56,1.07-1.66,.2,0-.2,.49,0,.59,.29,.2,.2-.29,.39-.39,.2-.2-.1-.49,.2-.78,.2,.1,.2-.49,.68-.2,0,.2-.29,.59-.2,.78,.2,.2,1.66-.98,1.56-1.17-.29-.49-.49,.39-.98,.2-.2-.2,.98-1.27,1.27-1.07-.68-2.05-3.12-6.84-3.91-8.4,.2-.59,.98,.1,1.37,.49,.29-.39-1.27-2.05-1.37-3.03-.88,.1,.49,1.46-.2,1.76-.49,.1-1.95-3.71-2.54-4.88,0-.2,.68,.1,.68-.39,0-.59-.1-1.17,.1-1.27,.68-.2,3.12,5.08,4.98,6.35,1.17-.2,.78,2.44,1.56,3.22,.39,.29,.59-.29,.88,.29,.78-.29,.29-1.07-.39-.78-1.17-5.37-8.59-14.84-11.62-22.85,.2-.2,.68,.39,.68,0-1.17-1.37-2.15-3.71-2.54-5.57-.98-.59-.88-2.05-1.66-2.83-.39,2.44,2.15,7.71,1.95,8.01-.2,.2-.78-.39-.88-.78-.68,.39,.29,1.86,.68,2.34,.39,0,0-.68,.39-.88,2.15,4.2,5.96,12.3,5.57,12.6-.29,.1-1.07-1.17-1.37-1.07-.2,.2,0,.88,.49,.88,.29,.1,.1,.68,.59,1.07-.2,.1-.2,.98-.59,.78-5.08-9.77-12.3-21.19-12.3-32.91,0-2.83,.39-5.76,1.27-8.59,.49-2.34,2.25-6.05,4.49-6.54,.39-.1,.59-.49,.68-.78,.1-.59,.59,0,1.07-.1,.39,.29-.59,.39-.59,.49,0,.49,1.17,1.07,.1,1.95,0-.29-.2-.78-.49-.59-.2,.2-1.37,3.61-2.05,5.66,0,.29,.2,.68,.68,.68,0,.39-.49,.59-.88,.49,.29,1.27-.39,1.46,0,2.54-.2,.29-.59-.1-.68,0-.2,.59,0,.98,.1,1.17,.1,.1,.29,0,.39-.2,.68,.49,0,1.37-.1,2.44-.29-.59-.88-.1-.88,.29,0,.29,1.66,.49,1.27,1.07-.88,1.17-.2,4.59,.2,4.2,1.66-1.56,1.76,2.44,1.66,3.22,0,.39,.59-.2,.59,.2-.29,3.12,1.66,6.05,2.83,8.4,.39,.88,.49,2.54,1.07,2.83h.29c.39,0-.39,.88-.2,1.07,.39,.29,.29-.68,.59-.29,.39,.68,2.44,5.47,2.93,5.76,.29,.1,.1-.49,.49-.29,.29,.29-.39,1.17-.1,1.46,.29-.59,.39,.29,.59-.1,.29,.29,.1,.39,.1,.88,.49-.59,.88,.68,.39,.88-.2,.2,.59,.59,.78,.98,1.66,3.42,3.71,7.32,5.57,10.55,.2,.29,.68,.1,.49,.49,.39,.2,.49-.29,.78-.39,0-.29-.78-.2-.78-.49-.1-.39,.59,.1,.59-.2-.29-.29-.1-.98,.2-.98,.39-.1,.68,.1,.88,.29,.2-1.37-1.76-.39-1.76-.78,.1-.68-1.86-2.73-1.17-3.22,.39-.29,1.37,2.05,1.66,1.95,.39-.2,.78,.98,1.07,.78,.29-.29-1.17-3.03-1.95-4.59-.1-.1-.49,.2-.59-.1,.49-.59-.1-1.07-.1-1.76-.39-.2-.68,.88-.98,.29,.2-.88-.1-2.34-1.07-2.54,.29-.49-.39-.29-.49-.88-.1-1.56-2.25-3.22-2.05-3.71,.1-.1,.68,.1,.78-.1,.2-.78-1.07-.49-1.37-.88-.78-1.95-3.22-4.79-2.93-4.98,.49-.29,.49,.68,1.07,.59-2.93-5.18-6.35-16.41-5.66-16.8,.39-.1,.29,1.07,.49,1.17,.2,0,0-.59,.29-.59-.49-4.2-.2-8.4,1.66-12.79-.39-.2-.49,.78-.78,.68-.29-.2,1.17-2.34,.88-2.54-.29-.1-1.37,1.95-2.05,3.12-.2,0-.2-.59-.2-.78-.39-.29,.98-2.44,.68-3.52-.2-.1-.49,.98-.78,.68-.29-.39,1.17-1.66,.68-2.15-.49-.59,2.25-2.15,3.03-3.52-.2-.39-.78-.29-.88-.1,0,.29,.29,.29,.2,.59,0,.2-.88,0-1.27,.1,0-.78,1.56-1.86,1.46-1.95-.1-.29-.98,.2-1.46,.78-.39-.39-.1-.49-.49-.68,0-.49,1.37-.29,1.27-1.17l.39,.2c.1-.29-.2-.39,0-.78,.39-.1,.49-.49,.98-.39-.39-.59,.88-.98,1.17-1.76,.1-.29-.59,0-.59-.29s.49-1.07,.88-.88c.1,.59,.88,.39,1.17,.68l1.07-.98c.2-.2,.1,.49,.29,.49,.29,.1,.2-.59,.59-.59,.49,0-.1,.39-.1,.88,0,.29,.49,.59,.68,.49,.29-.29-.29-.59-.2-.88,.29-.39,.78-.49,1.17-.2-.29,.49,.1,.68,.2,1.07,.29-.2,.29-.68,.78-.49,.1,.1-.29,.29-.29,.78-.1-.49-.98,.49-.98-.2-.1-.29-.68,.29-.88,.59,.98,0,1.17,.29,1.76,.78,.2,0,.2-.2,.39-.2-.1-.29-.68-.1-.78-.39,.29-.2,0-.1,.1-.39,.88,.39,3.52,.2,2.73,1.86,2.15-.1,2.15,2.54,3.71,3.42,.1,.29-.49,.29-.29,.39,.59,.59,1.07,1.37,.88,2.54-.1,.49-.49,.78-1.07,.2,.2-.1,.68-.49,.59-.68-1.17-.68-.49,1.66-1.27,1.46,.1-.29,0-.68-.1-.78-.39-.1-.1,.49-.59,.29,0-.29-.2-.68-.29-.68-.29,0,.1,.49-.1,.88-.1-.1-.49-.39-.59-.2-.2,.29,.39,.59,.78,.78,0,.2-1.46-.59-1.66,.68,.78-.29,1.46-.29,2.05-.1-.1,.1-.29,.1-.49,.1,0,.29,.49,.39,.68,.2,0,.59-.88,1.27-.39,1.76,.39-.29,1.46-.78,1.07-1.37,.39-.39,.88-.39,1.07-.98,.49-.2,.98,.39,1.27-.2,.39,.29,0,1.17,.68,1.07-.2,5.47-3.12,4.98-4.59,9.57-.68,.2-.68,2.05-1.07,2.05-.29-.1,0-.59-.29-.49-.98,1.86-.59,4-1.27,5.57,0,3.71,11.52,26.76,15.14,34.67,1.37-.98,1.95-1.86,2.44-1.76,.29,.1,.1,.29,0,.49,.1,.2,.78-.29,.88-.59,0-.2-.49-.1-.59,0-.39-.59,.29-.88,.78-1.17,.39,.2-.1,.39,.39,.68,0-.2,.49-.49,.1-.88,0-.2,.88-1.17,1.17-1.17,0,.59,0,.1,.49,.59-.2-.59-.1-.88,.29-.98,0,.49,.39-.1,.68-.2,.1-.2-.49-.1-.39-.29,.2-.29,.39-.68,.59-.78,.2,.1,.1,.29,0,.49,.68,.2,.2-.49,.39-.68,.2,.2,.39,.29,.59,0-.49-.1,.1-.2,.1-.59,.2-.1,.2,.29,.29,.29,.29-.2,.49-1.17,.98-1.17,.29,0-.29,.29,0,.39,.2,0,.49-.49,.88-.59-.1-.39-.49,.2-.78-.1,.78-.49,1.76-2.15,2.15-1.66,.1,.1-.78,.88-.29,1.17-.1-.39,1.07-.98,.59-1.56,.1-.39,1.37-1.46,1.86-1.95,.1,0,.2,.2,.29,.2,.2-.39,1.86-2.25,2.25-2.15v.2c-.1,.29,.39-.98,.39-1.07-.1-.1-.29,.68-.49,.59-.59-.29,.49-1.17,.68-1.86,.2,.1,.29,.49,.29,.68,.1,.29,1.66-1.37,1.56-1.76-.2-.2-.39,0-.49,.2-.2,.68-.78,1.07-.98,.78,.88-2.25,2.44-3.32,2.73-3.32,.39,.2-.39,1.17-.49,1.66,1.17,.2,.59-2.73,.78-2.73s.2,.39,.29,.49c.29,.1,.88-1.17,1.27-1.46-.29-.59-.88,.68-1.07,.59-.39-.68,1.46-.88,1.17-2.25,.68-.2,.49-.78,.68-1.07,.1-.1,.2,.1,.39,.2,.39-.2-.1-.78,.1-1.07l.78-1.07c.98-1.07,1.17,.29,2.34,.29,.29,.39,0,1.17-.1,1.27-.2,.39,.29,.98-.1,1.27,.68,.88-.49,.59-.78,2.15-.78-.39-.39,.49-1.37,0-.1,.1-.29,.59-.1,.59,.68,.39,.49,.78,.39,1.76-.39,.29-.1-.2-.59-.2-.1-.2,.2-.49,.1-.78-.98,.39,0,1.95-.39,1.95-.88-.39-.1,.68-.49,.98-.29,.1,.1-.59-.1-.49-.39,0-1.17,2.25-1.86,3.22-.39,.68-1.17,.49-1.07,.88,.2,.49-.78,.39-.78,1.17-.39,.68-.59,.88-1.76,2.05-.78-.2-1.27,1.66-2.05,1.86-.2-.29-.59,.78-.78,.2-.29,0,.2,.98-.29,.98-.1,0-.2-.29-.29-.2-.29,.59-.98,2.34-2.05,2.25-.29,.39-.59,.2-.98,.68-.59,.1,.1-.68-.39-.49-.1,2.64-3.12,3.12-4.2,4.79-.39,.1-.1-.29-.29-.29-.29,.2-.59,.59-.88,1.17-.2,.39-.98,.2-.88,.78-.29,0-.59,0-.68-.2-.2,.29,.29,.39,.2,.49-.2,.29-.39-.1-.2,.49-.88-.1-.78,.59-1.86,1.27,1.17,2.83,1.66,6.05,1.46,7.81-.29,.59,.2,.88,.1,1.37-.88,1.46,0,2.44-.29,3.81-.1,.39,.1,.2,.49,.1-.1-.59-.49-3.32,.1-3.12,.2,.1,.88,2.83,.68,3.61-.49,.1-.59,.49-1.17,.39,.2,3.71-.88,5.66-1.66,5.96-2.34,.88-1.56,3.81-3.71,5.08-.29,.1-.29-.68-.59-.2-.88,1.66-.88,.68-1.17,1.17-3.81,7.32-11.72,11.33-16.21,12.3,0,1.46-5.47,3.03-8.11,3.03-5.66,0-10.94-4.2-10.94-9.77Zm12.11,5.27c0,.29,.59,.1,.68,.29,.1-.68,.88-.59,1.56-.39,2.83-1.86,5.76-3.12,7.62-6.15,.1-.1,.2,.1,.2,.29,.29-.1,0-.49,.29-.49,0-.2-.39-.29-.1-.59,1.07-.68,.68-1.56,1.95-2.73,.1-.39-.49,.29-.29-.1,0-.88,.49-1.66,1.07-2.15-.1-.29-.39,0-.49-.2,.59-.68-.1-1.46,.68-2.44,.2,.1,.59,.29,.59-.1,.2-.39-.49,0-.39-.29,.39-.29,0-1.07,.59-1.46-.49-.1-.1-.68-.49-.59,0,.29-.29,1.27-.68,1.17,.29-.68,.1-1.76,.39-1.95,.88-.98,0-1.46,.39-2.34-.39-.29-.68,.29-.78,0,0-.29,.68-.39,.98-.39-.2-.2,.29-.78-.1-1.17-.2,0-.1,.98-.39,.78,0-.39-.39,.2-.39,0,.29-1.07-.49-1.95,.1-2.83-.68,.1-.2-.68-.49-.88,.88-.1,1.66-.88,1.07-1.76-.29-.1-.49,1.17-.88,1.07-.2-.78-.2-1.56-.68-2.54-.59,.68-1.07,1.95-1.56,1.76-.1-.1,.2-.39,0-.39s-.39,.88-.78,1.27c-.2,.1-.1-.29-.39-.2s-.1,.29-.2,.59c-.88-.1-1.17,.88-1.95,.88-.29,.1,0,.29-.1,.49-.88,0-1.17,1.27-1.86,.98-.39,.2,0,.49-.2,.68-.29-.29-.49-.1-.88-.2,.1,.78-.59,.2-.59,.98l-.59-.2c0,.59-.59,.59-.1,.98-.68-.1-.78,1.17-1.17,.98-.78-.68-.78,1.37-1.56,.88-.2,0-.1,.68-.59,.78-.2,0,.1-.49-.2-.39-.49,.29-.39,1.07-1.37,1.07,.1,.68-.68,1.07-1.27,.88-.2,.98-.88,2.05-1.37,1.86-.29,.39,.1,.78-.39,.88,0-.2-.1-.29-.2-.39,0,.39-.29,.49-.49,.59,.29,.29-.2,1.27-.39,.68-.49,.98-.49,1.86-1.37,2.64-.29,.98-.88,2.64-.88,4.79,0,2.83,2.05,4.69,3.91,4.69-.1,.29,.2,.1,.2,.39,1.27,.29,2.64,0,3.61,.29,.29,.1,.29-.29,.68-.29Zm-1.27-96.39c.59-.49,1.66-2.73,2.05-2.15,.1,.29-.39,.88-.2,1.27,.39-.1,.59-.78,.88-.88,.2,0,.39,.68,.29,1.17-.49,.59-.59,1.86-1.27,1.27,.49-.59-.2-.88-.68-.49-.2,.39,.78,1.37,.29,1.86-.68,0-.88-1.66-1.37-2.05Zm7.42,31.15c-.1-.59-.29,.2-.59,0,.49-1.46-.98-2.54-.39-3.42-1.37-4.49-1.86-9.67-.98-16.02-4.2,6.54-.49,16.99,1.66,21.19,.1,.29,.59,.88,.88,.68,.2-.29-.49-1.56-.59-2.44Zm13.77,20.41c-.1-.49-.68-1.27-.88-1.27s.1,.68-.29,.49c-.88-1.76-2.93-5.08-3.22-4.88-.39,.49,1.86,3.52,3.12,5.57,.2,.29,.49-.68,.68-.39,.1,.1-.2,.59,0,.78,.39,.2,.2-.29,.59-.29Zm-1.76-4.49c.49-.88-.98-2.93-1.17-2.73-.1,.2,.29,.59,.1,.68-.29-.2-.59-.98-.78-.88-.29,.2,.49,.98,.68,1.46-.78,.59,.49,1.66,.78,1.95-.29,.59,.78,.88,.59,1.46,.39,.1,.2-.39,.49-.29,.2,.1,.29,1.95,1.27,1.07-.88-.78-1.27-1.95-1.95-2.73Z"/></g><g><path class="d" d="M291.07,29.54v.66c-4.09-.19-7.25-.23-11.38,0v-.66c2.62-.39,2.85-.81,2.97-3.12,.08-1.2,0-6.21-.04-9.3-.04-2.39-.12-6.75-.19-8.87l-9.1,21.95h-.66c-2.89-6.79-5.82-13.58-8.83-20.17-.31-.69-.58-1.23-.89-1.74-.04,5.09-.08,12.27-.08,14.89,.04,4.09,.58,4.98,4.01,6.4v.62c-3.36-.19-6.29-.19-9.61,0v-.62c3.43-1.58,3.82-2.47,4.01-6.36,.19-2.93,.46-11.26,.66-16.32-1-1.04-2.16-1.39-4.17-1.93v-.66c3.39,.27,6.94,.23,10.03,.15,.15,1.39,.54,2.55,1.27,4.32,1.04,2.55,2.97,7.29,6.06,14.23l4.98-12.27c1.16-2.78,1.74-4.36,1.97-6.29,3.2,.08,6.02-.04,8.56-.15v.66l-.81,.15c-1.7,.42-1.97,.77-2.04,2.97-.04,1.16,.04,6.13,.08,8.91,.04,2.78,.15,8.22,.27,9.49,.23,2.35,.5,2.58,2.31,2.93l.62,.12Z"/><path class="d" d="M292.61,20.82c0-5.55,3.78-9.8,9.49-9.8s9.1,4.44,9.1,9.6c0,6.25-4.17,10.03-9.53,10.03-4.94,0-9.07-3.43-9.07-9.84Zm13.23-.31c0-5.29-1.16-8.6-3.7-8.6s-4.13,2.89-4.13,9.07,1.47,8.79,3.7,8.79c2.55,0,4.13-3.09,4.13-9.26Z"/><path class="d" d="M319,19.16v.66c0,5.98,2.39,8.33,6.29,8.33,1.43,0,2.93-.31,4.71-1.27l.12,.23c-1.47,2.12-4.05,3.55-7.33,3.55-5.63,0-8.83-3.32-8.83-9.22,0-6.63,4.24-10.42,8.99-10.42s7.37,2.66,7.37,7.21v.93h-11.3Zm-2.16-13.08c0-1.47,.93-2.62,2.66-2.62,1.54,0,2.51,1.16,2.51,2.62s-.96,2.58-2.51,2.58c-1.74,0-2.66-1.16-2.66-2.58Zm2.2,12.3l6.44-.42c0-4.75-.85-6.09-2.55-6.09-2.12,0-3.62,2.2-3.9,6.52Zm4.55-12.3c0-1.47,.93-2.62,2.62-2.62s2.55,1.16,2.55,2.62-.93,2.58-2.55,2.58-2.62-1.16-2.62-2.58Z"/><path class="d" d="M344.11,27.84c-1.08,1.74-3.24,2.82-5.71,2.82-2.78,0-4.67-1.43-4.67-4.74,0-1.39,.46-10.03,.46-10.61,0-.54-.15-.66-1.08-.89l-1.12-.27v-.42c2.55-1.74,4.2-2.97,6.63-4.94l.42,.15c-.12,1.27-.19,2.62-.23,3.47h5.13v2.2h-5.13v.12c0,1.66-.08,8.72-.08,10.68s1,2.89,2.58,2.89c.81,0,1.66-.15,2.66-.66l.12,.19Z"/></g></g></g></svg>